<svg width="120" height="120" viewBox="0 0 120 120" fill="none" xmlns="http://www.w3.org/2000/svg">
<path fill-rule="evenodd" clip-rule="evenodd" d="M10.0008 29.0015C4.18291 26.9658 0 21.4215 0 14.9167C0 6.69012 6.69012 0 14.9167 0C21.3398 0 26.8263 4.07847 28.9231 9.78232H90.4101C92.5069 4.07847 97.9934 0 104.417 0C112.643 0 119.333 6.69012 119.333 14.9167C119.333 21.2567 115.36 26.6842 109.771 28.84V90.4932C115.36 92.649 119.333 98.0765 119.333 104.417C119.333 112.643 112.643 119.333 104.417 119.333C97.9938 119.333 92.5076 115.255 90.4105 109.552H28.9227C26.8255 115.255 21.3393 119.333 14.9167 119.333C6.69012 119.333 0 112.643 0 104.417C0 97.9119 4.18255 92.3679 10.0001 90.332L10.0008 29.0015ZM102.314 89.6475C95.8404 90.5642 90.6915 95.6507 89.6804 102.094H29.872C28.8747 95.7244 23.8305 90.6807 17.4609 89.6827V29.6517C23.8303 28.6538 28.8739 23.6102 29.872 17.2406H89.6806C90.6922 23.6831 95.8408 28.769 102.314 29.6857V89.6475ZM71.5 47C69.5656 47 68 45.3895 68 43.3997V42.2006H54V77H59.5912C61.4752 77 63 78.5656 63 80.5C63 82.4344 61.4752 84 59.5912 84H50.5H41.4088C39.5248 84 38 82.4344 38 80.5C38 78.5656 39.5248 77 41.4088 77H47V42.2006H33V43.3997C33 45.3895 31.4344 47 29.5 47C27.5656 47 26 45.3895 26 43.3997V38.6003C26 36.6105 27.5656 35 29.5 35H50.5H71.5C73.4344 35 75 36.6105 75 38.6003V43.3997C75 45.3895 73.4344 47 71.5 47ZM91.6429 59C90.3401 59 89.2857 57.9263 89.2857 56.5998V55.8004H80V80H83.682C84.9631 80 86 80.8946 86 82C86 83.1054 84.9631 84 83.682 84H77.5H71.318C70.0369 84 69 83.1054 69 82C69 80.8946 70.0369 80 71.318 80H75V55.8004H65.7143V56.5998C65.7143 57.9263 64.6599 59 63.3571 59C62.0544 59 61 57.9263 61 56.5998V53.4002C61 52.0737 62.0544 51 63.3571 51H77.5H91.6429C92.9456 51 94 52.0737 94 53.4002V56.5998C94 57.9263 92.9456 59 91.6429 59Z" fill="#15BE77"/>
</svg>
