<svg width="950" height="844" viewBox="0 0 950 844" fill="none" xmlns="http://www.w3.org/2000/svg">
<path d="M563.213 717.519C554.752 721.428 550.812 731.819 553.781 740.156C556.427 747.586 563.452 750.275 564.156 750.531C571.625 753.249 581.219 750.729 585.85 742.985C590.677 734.912 588.056 724.597 581.134 719.405C575.991 715.548 568.944 714.871 563.213 717.519Z" fill="#B9EBD6"/>
<path d="M553.781 676.96C562.27 677.274 570.759 677.589 579.248 677.903C579.176 645.924 579.761 612.888 581.134 578.865C583.56 518.775 588.199 461.771 594.339 408.143C578.304 408.457 562.27 408.772 546.235 409.086" fill="#B9EBD6"/>
<path d="M247.236 94.0525C249.695 91.5355 257.056 95.0835 258.834 95.9405C261.997 97.4655 267.353 100.7 272.18 107.607C278.058 102.939 285.639 103.115 289.362 106.889C292.877 110.45 291.719 115.964 291.569 116.624C293.14 121.775 294.71 126.924 296.282 132.074C298.94 134.04 302.738 137.36 305.964 142.426C309.748 148.371 311.041 154.047 311.539 157.498C317.972 159.426 324.774 156.608 327.439 151.505C329.425 147.701 328.911 143.014 326.243 139.379C328.763 134.953 328.487 129.709 325.552 126.059C321.942 121.568 316.095 121.712 315.426 121.74C322.188 120.984 328.009 116.951 330.4 111.285C332.708 105.818 330.944 100.904 330.424 99.5965C340.454 88.0195 339.024 80.1025 338.664 78.4715C335.791 65.4675 313.228 55.3685 282.702 61.1535C289.922 51.2505 291.082 39.3485 285.785 30.6105C284.736 28.8805 279.8 20.8065 269.848 20.0795C260.67 19.4095 254.092 25.4915 253.085 26.4525C252.114 25.3285 248.535 21.4735 242.243 20.4995C234.906 19.3645 229.312 22.9875 228.219 23.7265C227.243 21.9335 225.088 18.6825 221.188 17.0775C214.887 14.4845 206.569 17.2335 201.018 24.2525C202.437 16.9205 199.121 10.6455 194.415 9.16151C190.152 7.81651 186.175 10.8515 185.926 11.0475C181.802 14.2945 180.473 20.8185 183.096 27.0825C184.587 21.0225 182.673 14.9365 178.38 11.9915C172.274 7.80352 163.655 11.5425 159.516 16.7075C154.519 22.9425 156.423 30.7875 156.686 31.7985C155.444 30.9855 148.303 26.4625 141.595 28.9685C133.583 31.9625 128.379 44.1655 133.106 57.2645C128.413 57.7175 121.709 58.8675 114.242 61.9805C111.488 63.1285 103.786 66.4055 97.2644 72.3555C84.7964 83.7315 74.9714 106.401 83.8054 123.986C85.4744 127.308 88.9344 132.688 96.3214 137.438C94.9594 138.372 85.2304 145.295 84.0594 158.189C83.0254 169.581 89.4144 177.46 90.6624 178.94C80.9234 186.753 78.8544 199.172 83.9904 206.613C88.7014 213.438 97.9054 213.807 99.1514 213.839C95.1864 224.357 98.8294 236.107 107.64 242.134C115.382 247.43 125.861 247.451 134.05 242.134C133.152 240.877 132.013 238.98 131.22 236.475C130.237 233.367 130.212 230.661 130.331 228.958C135.127 223.863 135.468 220.569 134.993 218.555C133.76 213.331 126.236 213.344 119.902 204.406C118.294 202.138 115.983 198.788 117.072 195.918C118.126 193.141 121.412 193.321 122.731 190.259C124.075 187.14 121.382 185.293 121.788 181.77C122.432 176.187 130.258 171.636 136.879 170.451C143.585 169.251 144.251 172.364 152.914 172.337C162.318 172.308 173.368 168.604 174.608 162.905C175.085 160.711 174.139 158.076 175.551 157.245C176.441 156.721 177.415 157.317 180.282 157.441C181.042 157.474 181.949 157.435 183.097 157.245C183.097 157.245 187.596 156.499 191.5 153.663C201.282 146.558 199.226 129.646 199.132 128.949C197.831 119.273 192.335 112.799 189.7 110.085C202.874 113.764 209.683 118.157 213.493 121.646C215.32 123.32 220.018 128.028 225.198 127.221C227.026 126.936 227.907 126.147 229.01 126.524C230.891 127.165 232.19 130.778 230.774 142.293C232.622 141.757 237.953 139.958 241.605 134.887C245.752 129.128 246.096 121.42 242.636 114.869C244.55 112.497 246.762 108.958 247.236 104.427C247.803 99.0055 245.498 95.8315 247.236 94.0525Z" fill="#B9EBD6"/>
<path d="M136.88 248.741C134.361 250.295 134.437 259.404 140.653 263.832C145.216 267.083 151.536 266.706 155.744 262.889C143.425 249.617 138.725 247.602 136.88 248.741Z" fill="#B9EBD6"/>
<path d="M151.028 259.116C149.881 259.897 152.661 271.336 160.46 273.264C166.535 274.766 173.079 269.86 172.722 268.548C172.459 267.583 168.61 269.1 163.29 267.605C155.236 265.342 151.975 258.471 151.028 259.116Z" fill="#B9EBD6"/>
<path d="M214.223 558.115C212.43 558.563 203.665 560.561 191.772 563.575C181.152 566.266 172.343 568.652 166.119 570.377C173.773 588.486 181.347 607.353 188.756 626.969C197.43 649.934 205.259 672.292 212.336 693.938C236.623 694.224 286.27 690.989 329.295 657.153C338.196 650.153 345.668 642.743 351.932 635.458C363.879 613.45 375.827 591.442 387.774 569.434C405.695 536.421 423.616 503.409 441.537 470.396C412.395 488.163 387.329 500.32 369.853 508.125C314.614 532.795 265.187 545.381 214.223 558.115Z" fill="#B9EBD6"/>
<path d="M130.277 543.966C127.45 545.546 133.245 573.287 154.801 590.184C163.047 596.648 171.444 599.835 177.438 601.503C173.665 591.128 169.892 580.752 166.119 570.377C162.41 568.814 157.426 566.421 151.971 562.831C136.885 552.902 132.082 542.957 130.277 543.966Z" fill="#B9EBD6"/>
<path d="M130.278 709.029C139.153 706.234 157.414 699.15 173.618 681.758C186.841 667.565 192.869 652.76 195.626 644.212C188.332 650.5 173.263 661.724 151.108 666.478C136.258 669.665 123.556 668.8 115.187 667.527C120.217 681.361 125.248 695.195 130.278 709.029Z" fill="#B9EBD6"/>
<path d="M728.276 305.333C729.514 308.922 733.366 318.505 743.367 325.142C748.777 328.732 754.043 330.171 757.515 330.801C761.602 324.827 765.69 318.854 769.777 312.88C755.943 310.364 742.11 307.848 728.276 305.333Z" fill="#B9EBD6"/>
<path d="M297.698 148.288C295.381 149.623 288.658 153.09 279.777 152.061C267.955 150.691 261.247 142.389 259.969 140.742" stroke="#0C6031" stroke-width="3.7729" stroke-miterlimit="10"/>
<path d="M249.883 161.617C249.116 164.911 247.798 172.633 250.909 181.517C255.534 194.723 266.47 200.57 268.858 201.777C266.565 206.753 264.272 211.729 261.979 216.705" stroke="#0C6031" stroke-width="3.7729" stroke-miterlimit="10"/>
<path d="M201.49 187.903C202.119 193.562 202.748 199.222 203.376 204.881" stroke="#0C6031" stroke-width="3.7729" stroke-miterlimit="10"/>
<path d="M279.777 168.096C280.406 174.07 281.035 180.043 281.663 186.017" stroke="#0C6031" stroke-width="3.7729" stroke-miterlimit="10"/>
<path d="M203.376 162.436C200.555 165.844 195.626 170.937 188.131 175.07C179.563 179.794 171.612 181.075 166.994 181.468" stroke="#0C6031" stroke-width="3.7729" stroke-miterlimit="10"/>
<path d="M150.593 241.825C148.658 235.546 149.715 230.213 152.362 228.934C155.821 227.264 161.181 232.905 162.319 234.103C167.588 239.648 170.735 248.641 168.105 251.089C166.473 252.608 162.832 251.408 160.746 249.961C156.473 246.998 154.77 240.262 157.012 233.172" stroke="#0C6031" stroke-width="3.7729" stroke-miterlimit="10"/>
<path d="M142.164 215.739C138.85 217.552 132.926 221.504 131.334 228.181C128.197 241.339 144.497 254.134 149.02 257.684C161.422 267.419 174.958 269.361 182.45 269.74" stroke="#0C6031" stroke-width="3.7729" stroke-miterlimit="10"/>
<path d="M315.259 172.104C320.954 195.803 321.523 215.521 321.044 228.691C320.264 250.134 319.295 269.912 306.347 288.37C302.371 294.038 295.504 303.571 282.938 308.874C266.967 315.614 251.839 311.28 241.231 308.242C213.813 300.388 195.944 282.27 187.254 271.884" stroke="#0C6031" stroke-width="3.7729" stroke-miterlimit="10"/>
<path d="M300.932 294.592C304.309 303.061 307.686 311.531 311.063 320C313.625 326.425 316.187 332.85 318.749 339.275" stroke="#0C6031" stroke-width="3.7729" stroke-miterlimit="10"/>
<path d="M206.206 290.714C215.754 303.171 221.554 314.596 225.07 322.783C232.411 339.875 231.771 347.445 230.729 352.023C229.479 357.518 226.976 361.663 225.07 364.285" stroke="#0C6031" stroke-width="3.7729" stroke-miterlimit="10"/>
<path d="M189.77 107.397C190.82 108.277 202.93 118.761 201.452 134.218C201.132 137.563 199.535 147.831 190.512 153.812C182.532 159.101 174.101 157.486 172.082 157.099C170.363 156.77 161.126 155 160.575 150.518C160.12 146.817 165.673 141.978 169.397 142.939C174.367 144.221 177.776 156.271 174.528 163.233C170.403 172.074 154.335 175.285 134.765 169.949" stroke="#15BE77" stroke-width="3.7729" stroke-miterlimit="10"/>
<path d="M133.956 175.348C128.38 175.313 123.511 178.039 121.881 182.194C118.734 190.211 128.913 200.311 132.624 199.234C134.796 198.604 136.07 193.761 134.437 191.402C131.766 187.546 120.211 188.725 117.711 194.01C115.607 198.457 119.399 206.904 128.803 211.928" stroke="#15BE77" stroke-width="3.7729" stroke-miterlimit="10"/>
<path d="M192.392 54.5654C195.157 52.4624 203.12 47.0314 213.529 48.1684C228.713 49.8264 240.452 64.5154 241.129 77.7804C241.217 79.5044 241.737 89.7114 235.451 93.2454C228.848 96.9574 217.457 91.7754 216.585 85.5364C215.883 80.5154 221.935 74.3974 227.765 73.9704C237.648 73.2474 249.69 88.6774 248.006 102.455C246.996 110.715 240.801 120.441 232.611 120.779C227.594 120.986 221.446 117.685 220.754 113.322C219.884 107.836 227.735 101.284 233.987 101.953C242.433 102.856 249.992 117.154 246.171 127.558C243.927 133.668 238.435 136.593 236.345 137.569" stroke="#15BE77" stroke-width="3.7729" stroke-miterlimit="10"/>
<path d="M296.307 114.673C296.539 112.957 297.303 106.057 293.469 102.604C286.416 96.2515 268.758 106.028 269.275 111.236C269.585 114.364 276.606 117.408 278.883 115.528C281.899 113.038 278.35 100.454 270.149 93.6245C264.85 89.2115 258.928 88.3005 256.087 88.0615" stroke="#15BE77" stroke-width="3.7729" stroke-miterlimit="10"/>
<path d="M297.226 62.5197C300.529 60.7717 308.673 57.0867 318.56 59.0897C330.332 61.4757 345.045 72.0237 343.911 85.5367C343.003 96.3607 332.228 105.505 322.206 105.362C317.141 105.29 310.44 102.819 309.847 99.1197C309.043 94.1057 319.36 86.1907 326.333 88.4837C334.135 91.0497 339.131 106.847 332.206 115.59C328.042 120.847 320.184 122.777 312.423 120.432" stroke="#15BE77" stroke-width="3.7729" stroke-miterlimit="10"/>
<path d="M328.34 123.224C328.869 123.846 334.606 130.796 332.226 137.921C331.089 141.326 327.717 145.915 324.256 145.161C321.095 144.472 318.449 139.454 319.911 136.739C320.78 135.125 323.099 134.33 325.021 134.702C330.065 135.679 335.261 145.262 332.008 152.225C330.031 156.458 325.263 159.011 319.933 159.071" stroke="#15BE77" stroke-width="3.7729" stroke-miterlimit="10"/>
<path d="M288.273 54.9198C288.996 53.9858 298.187 41.6858 293.165 27.5828C292.619 26.0488 287.571 12.5238 275.762 11.1668C265.067 9.93882 254.925 19.3918 254.21 28.8998C253.668 36.0998 258.496 43.8308 261.001 43.4548C263.566 43.0698 265.235 33.9538 263.076 26.3808C261.325 20.2398 256.43 12.9098 248.927 10.6988C234.588 6.47383 218.557 23.2478 220.562 31.1478C221.631 35.3628 228.238 38.6418 231.72 36.8528C238.261 33.4918 238.004 10.0688 228.205 5.76082C222.708 3.34382 214.422 7.79282 208.465 15.6628" stroke="#15BE77" stroke-width="3.7729" stroke-miterlimit="10"/>
<path d="M125.246 56.9686C114.339 52.0766 106.946 53.4316 103.519 54.4626C80.9363 61.2556 66.4363 96.8576 78.4503 120.308C83.0133 129.214 90.4933 134.543 96.2023 137.6C94.4223 137.043 85.7143 134.512 79.1263 139.332C70.6663 145.521 71.5533 159.552 75.7843 168.081C78.0443 172.637 81.2363 175.576 83.3833 177.236C81.1463 178.185 75.1303 181.122 72.7053 187.586C69.1223 197.136 75.8093 207.895 82.8363 212.994C87.2363 216.187 91.7573 217.151 94.4963 217.483" stroke="#15BE77" stroke-width="3.7729" stroke-miterlimit="10"/>
<path d="M91.8331 225.654C91.5891 227.046 89.7451 238.61 97.3131 246.824C104.873 255.029 118.725 256.526 129.805 249.1C127.437 255.807 129.249 263.23 134.237 267.641C140.159 272.879 147.647 271.296 148.452 271.112C148.666 272.148 150.041 278.316 155.548 281.483C161.163 284.712 168.763 283.494 173.978 278.196" stroke="#15BE77" stroke-width="3.7729" stroke-miterlimit="10"/>
<path d="M202.153 17.1636C202.172 9.07964 198.176 2.78263 194.161 2.07263C189.53 1.25263 182.37 7.42364 181.823 18.1616C181.515 19.2866 179.634 26.3196 181.561 27.4046C183.337 28.4056 188.588 24.4816 188.68 20.5046C188.823 14.2846 176.428 4.51364 166.015 8.21864C158.623 10.8486 154.977 19.2916 155.228 25.7206C155.374 29.4716 156.918 34.3766 158.722 34.4816C160.631 34.5936 163.568 29.3666 162.238 25.9716C159.983 20.2186 144.112 16.2576 135.904 24.2866C130.668 29.4076 129.525 38.4536 133.021 46.7606" stroke="#15BE77" stroke-width="3.7729" stroke-miterlimit="10"/>
<path d="M308.268 312.991C303.514 316.918 293.664 323.834 279.663 325.413C250.878 328.658 230.436 306.426 228.12 303.825C236.781 307.974 244.385 310.164 249.89 311.391C258.885 313.396 265.67 314.909 274.171 312.879C281.277 311.182 286.38 307.775 289.151 305.891C294.545 302.222 298.289 298.192 300.681 295.201C303.21 301.13 305.739 307.061 308.268 312.991Z" fill="#0C6031"/>
<path d="M222.241 370.886C229.081 374.929 246.272 383.749 268.459 381.261C272.135 380.849 307.73 376.28 322.222 346.362C327.731 334.988 328.133 324.199 327.881 318.066" stroke="#0C6031" stroke-width="3.7729" stroke-miterlimit="10"/>
<path d="M203.03 378.433C209.69 383.362 226.677 394.555 251.323 396.354C258.726 396.894 290.536 398.318 316.719 375.603C344.123 351.829 343.992 320.154 343.884 315.237" stroke="#0C6031" stroke-width="3.7729" stroke-miterlimit="10"/>
<path d="M233.559 264.303C234.025 263.354 236.445 258.667 242.048 256.757C248.871 254.432 254.608 258.203 255.253 258.643" stroke="#0C6031" stroke-width="3.7729" stroke-miterlimit="10"/>
<path d="M192.969 382.206C181.738 386.53 160.656 394.624 133.609 404.843C96.9069 418.711 87.9959 421.843 78.2739 430.31C62.9989 443.612 57.1699 460.108 50.1029 491.619C39.1069 540.654 45.3499 560.236 32.9989 610.464C28.5799 628.436 23.4719 642.795 19.9199 651.966C40.1189 655.763 58.3699 658.869 74.2489 661.398C119.909 668.671 131.087 668.809 142.664 667.057C156.143 665.017 172.893 660.001 190.957 648.193" stroke="#0C6031" stroke-width="3.7729" stroke-miterlimit="10"/>
<path d="M104.64 677.432C116.305 703.99 127.816 732.302 138.847 762.321C149.152 790.363 158.145 817.464 166.012 843.438" stroke="#0C6031" stroke-width="3.7729" stroke-miterlimit="10"/>
<path d="M118.518 531.233C122.904 537.151 129.407 544.659 138.64 551.984C148.67 559.941 158.449 564.924 165.805 568.019" stroke="#0C6031" stroke-width="3.7729" stroke-miterlimit="10"/>
<path d="M141.658 498.221C157.815 541.17 171.341 578.252 181.902 607.634C208.727 682.266 221.401 717.807 232.207 767.037C235.699 782.947 238.134 796.208 239.69 805.237" stroke="#0C6031" stroke-width="3.7729" stroke-miterlimit="10"/>
<path d="M175.866 564.245C194.272 560.673 221.981 554.898 255.348 546.325C306.543 533.171 342.384 523.626 384.631 502.466C408.16 490.681 426.507 478.859 438.709 470.396" stroke="#0C6031" stroke-width="3.7729" stroke-miterlimit="10"/>
<path d="M217.523 691.58C235.335 689.516 258.699 684.957 284.491 674.602C304.094 666.732 320.143 657.504 332.595 649.135" stroke="#0C6031" stroke-width="3.7729" stroke-miterlimit="10"/>
<path d="M347.688 313.35C349.021 313.052 351.818 312.419 355.322 311.557C384.659 304.343 394.742 293.531 424.824 285.82C428.016 285.002 429.847 284.533 432.103 284.111C447.715 281.19 475.455 282.074 515.109 313.822" stroke="#0C6031" stroke-width="3.7729" stroke-miterlimit="10"/>
<path d="M666.495 388.808C683.159 356.424 699.822 324.041 716.485 291.657" stroke="#0C6031" stroke-width="3.7729" stroke-miterlimit="10"/>
<path d="M765.533 321.84C756.187 339.329 749.882 371.913 741.481 395.882C730.231 427.981 725.918 446.784 717.429 469.924" stroke="#0C6031" stroke-width="3.7729" stroke-miterlimit="10"/>
<path d="M725.918 273.735C727.132 265.156 730.241 253.606 739.123 244.495C747.606 235.793 756.562 234.235 767.419 229.404C778.456 224.493 793.121 215.459 807.977 197.335C808.928 199.697 810.154 203.686 809.863 208.654C809.33 217.785 804.051 223.808 802.317 225.632" stroke="#0C6031" stroke-width="3.7729" stroke-miterlimit="10"/>
<path d="M772.135 241.665C785.463 237.217 796.544 234.675 804.204 233.176C818.072 230.462 821.36 230.632 833.444 227.517C845.284 224.466 844.253 223.598 860.797 219.028C873.808 215.434 882.069 213.865 891.923 215.255C895.562 215.768 898.497 216.555 900.412 217.141" stroke="#0C6031" stroke-width="3.7729" stroke-miterlimit="10"/>
<path d="M857.025 230.347C857.025 230.347 882.129 223.413 903.243 218.085C904.44 217.783 908.273 216.863 912.675 218.085C915.949 218.994 920.455 221.341 920.221 223.744C920.172 224.247 919.851 225.405 917.391 226.574" stroke="#0C6031" stroke-width="3.7729" stroke-miterlimit="10"/>
<path d="M836.274 236.95C836.577 241.146 836.547 246.671 835.331 252.985C833.644 261.743 830.36 268.461 827.785 272.793" stroke="#0C6031" stroke-width="3.7729" stroke-miterlimit="10"/>
<path d="M754.214 310.521C769.607 314.003 781.381 312.961 789.113 311.464C805.535 308.285 811.047 301.64 838.16 289.77C852.547 283.471 853.641 284.484 870.229 277.508C884.804 271.379 896.435 265.556 904.185 261.473C909.058 258.016 916.72 252.088 915.504 249.211C914.302 246.368 904.936 247.701 896.64 249.211C882.313 251.819 861.144 256.783 833.445 267.132" stroke="#0C6031" stroke-width="3.7729" stroke-miterlimit="10"/>
<path d="M846.649 244.495C860.935 241.526 875.401 238.386 890.037 235.063C899.569 232.899 909.002 230.697 918.333 228.46C923.018 228.179 926.938 229.729 927.765 232.233C928.648 234.907 925.755 237.911 923.049 240.722C919.592 244.312 915.943 246.281 913.617 247.325" stroke="#0C6031" stroke-width="3.7729" stroke-miterlimit="10"/>
<path d="M457.573 381.733C460.088 394.309 462.603 406.885 465.119 419.462" stroke="#0C6031" stroke-width="3.7729" stroke-miterlimit="10"/>
<path d="M554.724 679.79C554.724 679.79 545.292 637.345 542.462 540.194C539.632 443.043 546.235 409.087 546.235 409.087C546.235 409.087 562.27 404.371 594.339 405.314C594.339 405.314 575.475 612.821 579.248 679.79H566.986" stroke="#15BE77" stroke-width="3.7729" stroke-miterlimit="10"/>
<path d="M572.043 713.197C565.854 712.668 559.792 720.298 557.509 726.52C555.163 732.911 554.416 744.319 562.353 749.533C569.403 754.163 579.685 751.533 584.155 745.9C592.348 735.572 581.893 714.039 572.043 713.197Z" stroke="#15BE77" stroke-width="3.7729" stroke-miterlimit="10"/>
<path d="M230.293 830.427C341.266 637.474 452.24 444.522 563.213 251.569C679.946 443.714 796.679 635.859 913.412 828.004C685.706 828.812 457.999 829.619 230.293 830.427Z" stroke="#0C6031" stroke-width="3.7729" stroke-miterlimit="10" stroke-linecap="round" stroke-linejoin="round"/>
<path d="M2 754.304C2.457 756.356 5.191 767.733 16.148 774.111C17.568 774.937 31.554 782.777 43.501 775.054C54.791 767.755 58.402 750.379 52.933 744.871C50.05 741.967 44.055 741.785 41.143 744.4C37.144 747.991 39.319 756.525 42.086 761.377C48.384 772.42 63.348 774.195 66.61 774.582C94.461 777.886 116.863 748.775 119.43 745.343" stroke="#15BE77" stroke-width="3.7729" stroke-miterlimit="10" stroke-linecap="round" stroke-linejoin="round"/>
<path d="M493.415 103.485C496.578 105.844 512.178 116.981 531.144 112.917C551.953 108.458 567.506 87.6916 564.157 81.7906C561.632 77.3416 546.638 78.3026 541.52 85.5636C535.125 94.6356 544.106 113.599 557.555 121.406C569.607 128.403 585.762 126.737 599.057 117.633" stroke="#15BE77" stroke-width="3.7729" stroke-miterlimit="10" stroke-linecap="round" stroke-linejoin="round"/>
<path d="M947.422 544.694C942.357 545.135 915.548 547.776 902.634 561.944C893.867 571.562 892.706 585.176 898.591 586.802C904.056 588.312 918.491 580.286 920.501 571.119C922.6 561.548 910.501 553.705 900.43 550.749C883.896 545.896 860.766 550.677 843.817 563.137" stroke="#15BE77" stroke-width="3.7729" stroke-miterlimit="10" stroke-linecap="round" stroke-linejoin="round"/>
</svg>
