<svg width="229" height="66" viewBox="0 0 229 66" fill="none" xmlns="http://www.w3.org/2000/svg">
<rect width="229" height="66" rx="10" fill="white"/>
<path d="M35.2298 31.1447C33.739 31.779 32.047 32.4983 29.8543 32.4983C28.937 32.4965 28.0242 32.3714 27.1406 32.1265L28.6572 47.6017C28.7108 48.2485 29.0073 48.8516 29.4877 49.2913C29.9681 49.7309 30.5973 49.9749 31.2503 49.9748C31.2503 49.9748 33.4006 50.0858 34.1181 50.0858C34.8903 50.0858 37.2059 49.9748 37.2059 49.9748C37.8588 49.9747 38.4879 49.7307 38.9681 49.2911C39.4484 48.8515 39.7447 48.2485 39.7984 47.6017L41.4227 30.5009C40.6969 30.2545 39.9643 30.0908 39.1384 30.0908C37.7101 30.0902 36.5593 30.5792 35.2298 31.1447Z" fill="#FFDD00"/>
<path d="M48.4368 23.0702L48.2093 21.9207C48.0052 20.8893 47.5418 19.9148 46.4848 19.542C46.146 19.4227 45.7616 19.3715 45.5018 19.1246C45.242 18.8778 45.1653 18.4944 45.1052 18.139C44.9939 17.4865 44.8894 16.8334 44.7753 16.1821C44.6769 15.6221 44.599 14.993 44.3425 14.4793C44.0088 13.7894 43.3162 13.386 42.6275 13.1191C42.2746 12.9872 41.9144 12.8756 41.5488 12.7848C39.8282 12.3301 38.0191 12.163 36.249 12.0677C34.1244 11.9503 31.9941 11.9856 29.8744 12.1736C28.2968 12.3173 26.6352 12.4912 25.136 13.0378C24.588 13.2378 24.0234 13.478 23.6067 13.902C23.0955 14.423 22.9286 15.2287 23.3019 15.8784C23.5672 16.3397 24.0167 16.6657 24.4934 16.8814C25.1144 17.1592 25.7629 17.3706 26.4282 17.5121C28.2807 17.9222 30.1994 18.0832 32.0918 18.1517C34.1894 18.2365 36.2904 18.1679 38.378 17.9462C38.8942 17.8893 39.4095 17.8212 39.9239 17.7416C40.5297 17.6486 40.9186 16.8552 40.74 16.3024C40.5263 15.6416 39.9523 15.3853 39.3031 15.485C39.2074 15.5 39.1123 15.514 39.0166 15.5279L38.9476 15.5379C38.7277 15.5658 38.5078 15.5918 38.2878 15.6159C37.8335 15.665 37.3781 15.7051 36.9216 15.7363C35.8991 15.8076 34.8738 15.8405 33.8492 15.8422C32.8423 15.8422 31.8349 15.8137 30.8302 15.7474C30.3718 15.7174 29.9145 15.6791 29.4583 15.6327C29.2509 15.6109 29.0439 15.5881 28.837 15.5625L28.64 15.5374L28.5972 15.5313L28.3931 15.5017C27.9758 15.4388 27.5586 15.3663 27.1458 15.2788C27.1042 15.2696 27.0669 15.2464 27.0402 15.213C27.0135 15.1797 26.999 15.1383 26.999 15.0955C26.999 15.0528 27.0135 15.0113 27.0402 14.978C27.0669 14.9447 27.1042 14.9215 27.1458 14.9122H27.1536C27.5113 14.8359 27.8718 14.7707 28.2334 14.7138C28.3539 14.6949 28.4748 14.6763 28.5961 14.6581H28.5995C28.8259 14.6431 29.0534 14.6024 29.2787 14.5756C31.2389 14.3714 33.2107 14.3018 35.1804 14.3673C36.1366 14.3951 37.0924 14.4514 38.0442 14.5483C38.2489 14.5695 38.4525 14.5918 38.6561 14.6169C38.734 14.6264 38.8124 14.6375 38.8908 14.647L39.0489 14.6698C39.5095 14.7385 39.9676 14.8219 40.4234 14.92C41.0988 15.0671 41.9661 15.115 42.2664 15.8561C42.3621 16.0912 42.4055 16.3526 42.4584 16.5994L42.5257 16.9142C42.5274 16.9199 42.5287 16.9256 42.5296 16.9315C42.6887 17.6744 42.848 18.4174 43.0074 19.1603C43.0191 19.2152 43.0194 19.2719 43.0082 19.3269C42.9971 19.3819 42.9747 19.434 42.9426 19.4799C42.9104 19.5259 42.8692 19.5647 42.8213 19.594C42.7735 19.6232 42.7202 19.6423 42.6648 19.6501H42.6603L42.5629 19.6634L42.4667 19.6763C42.1618 19.716 41.8566 19.7532 41.5511 19.7877C40.9491 19.8564 40.3463 19.9159 39.7425 19.966C38.5428 20.0659 37.3407 20.1315 36.1361 20.1627C35.5223 20.1791 34.9087 20.1866 34.2953 20.1855C31.8537 20.1836 29.4143 20.0415 26.9889 19.7598C26.7264 19.7286 26.4638 19.6952 26.2012 19.6612C26.4049 19.6874 26.0533 19.6412 25.9821 19.6311C25.8152 19.6077 25.6483 19.5834 25.4814 19.5581C24.9212 19.474 24.3644 19.3703 23.8053 19.2795C23.1294 19.1681 22.483 19.2238 21.8716 19.5581C21.3698 19.8332 20.9636 20.255 20.7073 20.7673C20.4436 21.3133 20.3652 21.9078 20.2473 22.4946C20.1293 23.0813 19.9457 23.7126 20.0153 24.3149C20.1649 25.6149 21.0722 26.6714 22.3773 26.9076C23.605 27.1305 24.8394 27.311 26.0772 27.4648C30.9394 28.0613 35.8514 28.1326 40.7288 27.6776C41.126 27.6405 41.5227 27.6 41.9188 27.5562C42.0425 27.5425 42.1676 27.5568 42.2851 27.598C42.4026 27.6391 42.5095 27.706 42.5978 27.7938C42.6861 27.8817 42.7537 27.9882 42.7956 28.1055C42.8375 28.2229 42.8527 28.3482 42.84 28.4722L42.7165 29.6747C42.4677 32.1044 42.2188 34.534 41.9699 36.9634C41.7103 39.5146 41.4491 42.0657 41.1861 44.6165C41.112 45.3349 41.0378 46.0532 40.9636 46.7712C40.8924 47.4783 40.8824 48.2077 40.7483 48.9064C40.5369 50.0052 39.7943 50.68 38.7106 50.9268C37.7178 51.1531 36.7036 51.2719 35.6855 51.2812C34.5568 51.2873 33.4286 51.2372 32.2999 51.2433C31.095 51.25 29.6191 51.1385 28.689 50.2404C27.8718 49.4513 27.7589 48.216 27.6476 47.1479C27.4993 45.7337 27.3522 44.3197 27.2065 42.9059L26.3888 35.0444L25.8597 29.9577C25.8508 29.8736 25.8419 29.7906 25.8336 29.7059C25.7701 29.0991 25.3412 28.5051 24.6653 28.5357C24.0868 28.5614 23.4293 29.0539 23.4971 29.7059L23.8893 33.477L24.7004 41.2778C24.9314 43.4936 25.1619 45.7098 25.3919 47.9263C25.4364 48.3509 25.4781 48.7766 25.5248 49.2011C25.779 51.5213 27.5481 52.7717 29.7387 53.1238C31.0182 53.33 32.3288 53.3724 33.6272 53.3935C35.2917 53.4203 36.9728 53.4844 38.6099 53.1824C41.0359 52.7366 42.8561 51.114 43.1159 48.5972C43.1901 47.8706 43.2642 47.1438 43.3384 46.4168C43.585 44.0127 43.8313 41.6084 44.0772 39.2039L44.8816 31.3473L45.2504 27.7467C45.2688 27.5682 45.344 27.4003 45.4651 27.268C45.5861 27.1356 45.7464 27.0458 45.9224 27.0118C46.6161 26.8764 47.2792 26.6451 47.7726 26.1164C48.5581 25.2744 48.7144 24.1767 48.4368 23.0702ZM22.3417 23.8469C22.3523 23.8419 22.3328 23.9327 22.3245 23.9751C22.3228 23.911 22.3261 23.8542 22.3417 23.8469ZM22.409 24.3685C22.4146 24.3646 22.4313 24.3868 22.4485 24.4136C22.4224 24.3891 22.4057 24.3707 22.4085 24.3685H22.409ZM22.4752 24.4559C22.4991 24.4966 22.5119 24.5222 22.4752 24.4559V24.4559ZM22.6082 24.564H22.6115C22.6115 24.5679 22.6176 24.5718 22.6198 24.5757C22.6162 24.5714 22.6121 24.5675 22.6076 24.564H22.6082ZM45.8901 24.4024C45.6409 24.6398 45.2654 24.7501 44.8943 24.8053C40.7333 25.4238 36.5116 25.7369 32.3049 25.5988C29.2943 25.4956 26.3153 25.1608 23.3347 24.739C23.0426 24.6978 22.7261 24.6442 22.5253 24.4286C22.147 24.0219 22.3328 23.2028 22.4313 22.7113C22.5214 22.2611 22.6938 21.661 23.2284 21.5969C24.0629 21.4989 25.0319 21.8516 25.8575 21.977C26.8514 22.1289 27.849 22.2505 28.8503 22.3419C33.1238 22.7319 37.469 22.6712 41.7235 22.1006C42.4989 21.9962 43.2717 21.875 44.0416 21.7368C44.7275 21.6136 45.4879 21.3824 45.9024 22.094C46.1866 22.5787 46.2245 23.2273 46.1805 23.775C46.167 24.0137 46.0629 24.2381 45.8896 24.4024H45.8901Z" fill="#0D0C22"/>
<path fill-rule="evenodd" clip-rule="evenodd" d="M71.1441 35.9487C70.898 36.4115 70.5593 36.8144 70.1287 37.1563C69.6977 37.4985 69.1951 37.7771 68.6204 37.9916C68.0462 38.2067 67.4678 38.3509 66.8867 38.4245C66.3051 38.4983 65.7405 38.4919 65.1937 38.4043C64.6465 38.3172 64.181 38.1395 63.7983 37.8708L64.2294 33.4628C64.6259 33.3287 65.1249 33.191 65.7272 33.0501C66.329 32.9094 66.9477 32.8085 67.5839 32.7482C68.2201 32.6877 68.8219 32.6949 69.3902 32.7684C69.9571 32.8422 70.4055 33.0199 70.7337 33.3019C70.9113 33.4628 71.0624 33.6371 71.1854 33.8251C71.3084 34.013 71.3837 34.2076 71.4112 34.4089C71.4791 34.9724 71.3906 35.4857 71.1441 35.9487ZM64.8857 26.5587C65.1731 26.3843 65.5184 26.2298 65.9218 26.0955C66.3253 25.9617 66.7393 25.8674 67.1635 25.8138C67.5871 25.7605 68.0012 25.7533 68.4051 25.7936C68.8081 25.834 69.1643 25.9446 69.4719 26.1256C69.7799 26.3069 70.0089 26.5687 70.159 26.9106C70.3096 27.2531 70.3509 27.6859 70.2825 28.2091C70.2279 28.6251 70.0599 28.9775 69.7799 29.2658C69.4994 29.5547 69.157 29.796 68.754 29.9906C68.35 30.1854 67.9227 30.3397 67.4715 30.4533C67.0198 30.5677 66.5851 30.6517 66.1683 30.7051C65.7511 30.7589 65.3885 30.7927 65.0809 30.8057C64.773 30.8192 64.571 30.8259 64.4754 30.8259L64.8857 26.5587ZM73.3602 33.1004C73.1412 32.631 72.8475 32.2184 72.478 31.8624C72.1089 31.5069 71.6706 31.2488 71.1647 31.0876C71.3837 30.9132 71.599 30.6382 71.811 30.2623C72.0231 29.8869 72.2044 29.4773 72.355 29.0345C72.505 28.5914 72.6079 28.1456 72.6625 27.6959C72.7171 27.2464 72.6965 26.8606 72.6014 26.5383C72.3683 25.7334 72.0024 25.1026 71.503 24.6463C71.0036 24.1902 70.4225 23.8748 69.7592 23.7002C69.0955 23.5263 68.3638 23.489 67.5637 23.5896C66.7632 23.6902 65.9457 23.8881 65.1116 24.1834C65.1116 24.1164 65.1184 24.0459 65.1322 23.9721C65.1455 23.8986 65.1525 23.8213 65.1525 23.7405C65.1525 23.5393 65.0499 23.3651 64.8448 23.2173C64.6397 23.0697 64.4035 22.9826 64.137 22.9556C63.8702 22.929 63.6101 22.9857 63.3571 23.1267C63.1038 23.2676 62.9294 23.5263 62.8339 23.9014C62.7242 25.1093 62.6149 26.3641 62.5056 27.6655C62.396 28.9673 62.2799 30.2825 62.1568 31.6111C62.0336 32.9395 61.9105 34.2579 61.7873 35.5662C61.6642 36.8747 61.5411 38.1326 61.418 39.3402C61.4591 39.7026 61.5617 39.9845 61.7259 40.1857C61.8899 40.3872 62.0815 40.508 62.3004 40.5481C62.5191 40.5884 62.7485 40.5511 62.9877 40.4372C63.2269 40.3236 63.4357 40.1252 63.6138 39.8435C64.1607 40.1387 64.7764 40.33 65.4605 40.4173C66.1445 40.5044 66.8385 40.5044 67.5431 40.4173C68.2472 40.33 68.9417 40.1658 69.6256 39.924C70.3096 39.6826 70.932 39.3805 71.4929 39.0184C72.0538 38.6561 72.5257 38.2432 72.909 37.7804C73.2918 37.3172 73.5447 36.8174 73.6682 36.2809C73.7912 35.7307 73.8252 35.1806 73.7706 34.6303C73.7159 34.0802 73.5791 33.5705 73.3602 33.1004Z" fill="#0D0C23"/>
<path fill-rule="evenodd" clip-rule="evenodd" d="M93.1184 43.6765C93.0429 44.1244 92.9362 44.5961 92.7996 45.0919C92.662 45.5871 92.501 46.0387 92.316 46.446C92.1311 46.8532 91.9255 47.182 91.6996 47.4334C91.4728 47.6845 91.2294 47.7899 90.969 47.7493C90.7634 47.7217 90.6332 47.5928 90.5785 47.3624C90.5237 47.1311 90.5237 46.8462 90.5785 46.507C90.6332 46.1676 90.7395 45.7839 90.8973 45.3564C91.0546 44.9289 91.2469 44.5044 91.4728 44.0838C91.6996 43.6628 91.9563 43.2593 92.2443 42.8723C92.5323 42.4856 92.8336 42.1629 93.1492 41.9051C93.2177 41.9865 93.2486 42.19 93.2417 42.5161C93.2343 42.8418 93.1934 43.2288 93.1184 43.6765ZM100.09 34.8392C99.905 34.6356 99.6786 34.5204 99.4113 34.493C99.1441 34.4659 98.8731 34.6152 98.5989 34.941C98.4204 35.2667 98.1945 35.5791 97.9203 35.8777C97.6457 36.1766 97.3614 36.4479 97.0665 36.6922C96.7721 36.9363 96.491 37.1471 96.2237 37.3233C95.9564 37.5 95.7471 37.6289 95.5962 37.7103C95.5414 37.276 95.5106 36.8077 95.5037 36.3052C95.4963 35.803 95.5069 35.2941 95.5345 34.7783C95.5755 34.0451 95.661 33.3055 95.7917 32.5587C95.9219 31.8121 96.1105 31.0789 96.3571 30.3592C96.3571 29.9795 96.2678 29.6705 96.0898 29.4329C95.9113 29.1954 95.6955 29.0459 95.4421 28.9849C95.1881 28.9239 94.9282 28.9578 94.6604 29.0867C94.3932 29.2159 94.1636 29.4501 93.9718 29.7891C93.8071 30.2373 93.6184 30.7395 93.4064 31.2959C93.1934 31.8526 92.9537 32.4194 92.6864 32.9963C92.4191 33.5736 92.1205 34.1334 91.7916 34.6762C91.4627 35.2195 91.1029 35.7015 90.7119 36.1221C90.3213 36.5429 89.8962 36.8723 89.4371 37.1097C88.9775 37.3474 88.4811 37.4525 87.9461 37.4254C87.699 37.3574 87.521 37.1743 87.411 36.8754C87.3015 36.577 87.2362 36.2035 87.216 35.7555C87.1953 35.3076 87.216 34.8154 87.2776 34.2791C87.3393 33.7431 87.4216 33.2102 87.5242 32.6809C87.6273 32.1513 87.7404 31.6491 87.8637 31.174C87.987 30.6989 88.1034 30.2983 88.2134 29.9725C88.378 29.5791 88.378 29.2494 88.2134 28.9849C88.0487 28.7201 87.8228 28.5439 87.5348 28.4553C87.2468 28.3672 86.945 28.3708 86.6299 28.4657C86.3143 28.5607 86.0879 28.771 85.9513 29.0968C85.7181 29.6537 85.5055 30.2778 85.3137 30.9702C85.1214 31.6625 84.9673 32.3789 84.8509 33.1184C84.734 33.8586 84.6687 34.5917 84.6554 35.3179C84.6544 35.3652 84.6567 35.4101 84.6567 35.4571C84.3577 36.2463 84.0725 36.8428 83.802 37.2419C83.4523 37.7581 83.0581 37.9821 82.6196 37.9139C82.4273 37.8325 82.3008 37.6426 82.2392 37.3438C82.1771 37.0454 82.1564 36.6788 82.1771 36.244C82.1982 35.81 82.2493 35.3179 82.3312 34.7679C82.414 34.2182 82.5166 33.648 82.6399 33.0575C82.7636 32.4667 82.8938 31.8733 83.0305 31.2758C83.1676 30.6785 83.2909 30.1151 83.4013 29.5855C83.3875 29.1104 83.2467 28.7475 82.9794 28.4961C82.7121 28.2453 82.3381 28.1469 81.8587 28.2009C81.5298 28.3367 81.286 28.5134 81.1282 28.7304C80.9704 28.9475 80.8439 29.2259 80.7482 29.5651C80.693 29.7418 80.6106 30.0947 80.5011 30.6243C80.3912 31.1533 80.2509 31.7612 80.0797 32.4466C79.9081 33.1324 79.7062 33.8483 79.4729 34.5948C79.2397 35.3414 78.9793 36.0172 78.6918 36.6209C78.4033 37.2249 78.0882 37.7103 77.7455 38.0769C77.4027 38.4432 77.0324 38.5928 76.6349 38.5248C76.4155 38.484 76.2751 38.26 76.2135 37.8529C76.1519 37.4455 76.1413 36.9436 76.1827 36.346C76.2236 35.7488 76.306 35.0937 76.4293 34.3812C76.5526 33.6685 76.6791 32.9932 76.8097 32.3549C76.9399 31.717 77.06 31.1533 77.1699 30.6648C77.2794 30.1761 77.3549 29.8503 77.3958 29.6876C77.3958 29.2938 77.3066 28.9785 77.1285 28.7405C76.95 28.5034 76.7343 28.3538 76.4808 28.2926C76.2268 28.2316 75.9665 28.2655 75.6992 28.3943C75.4319 28.5235 75.2023 28.7578 75.01 29.0968C74.9415 29.4633 74.8522 29.8878 74.7427 30.3695C74.6328 30.8513 74.527 31.3468 74.4244 31.856C74.3213 32.3652 74.2252 32.864 74.1364 33.3528C74.0471 33.8415 73.9818 34.2691 73.9409 34.6356C73.9133 34.9206 73.8824 35.2703 73.8484 35.6842C73.8139 36.0986 73.7969 36.5362 73.7969 36.9976C73.7969 37.4595 73.8309 37.9175 73.8999 38.3721C73.968 38.8271 74.0918 39.2445 74.2698 39.6243C74.4478 40.0046 74.6981 40.3166 75.0206 40.561C75.3426 40.8054 75.7507 40.941 76.2443 40.9684C76.7513 40.9953 77.1934 40.9583 77.5706 40.8562C77.9479 40.7545 78.2901 40.5948 78.5988 40.3776C78.9075 40.1608 79.1882 39.9027 79.4421 39.6039C79.6956 39.3055 79.9459 38.9797 80.1929 38.6266C80.4257 39.1428 80.7275 39.5429 81.0978 39.8281C81.4677 40.113 81.8587 40.283 82.27 40.337C82.6808 40.391 83.0995 40.3339 83.5246 40.1639C83.9492 39.9945 84.3329 39.7059 84.6761 39.2985C84.9019 39.0487 85.1149 38.7648 85.3146 38.4509C85.3992 38.5979 85.4894 38.7398 85.5911 38.8707C85.9274 39.3055 86.3833 39.6039 86.9593 39.7669C87.5757 39.9299 88.1788 39.9573 88.7686 39.8485C89.3579 39.74 89.9201 39.5429 90.4547 39.258C90.9897 38.9728 91.4866 38.6302 91.9462 38.2295C92.4053 37.8291 92.806 37.4119 93.1492 36.9772C93.1349 37.2895 93.1285 37.585 93.1285 37.863C93.1285 38.1415 93.1216 38.4432 93.1078 38.7692C92.4223 39.2445 91.7746 39.8147 91.1646 40.4796C90.5541 41.1446 90.0195 41.854 89.5604 42.6075C89.1012 43.3608 88.741 44.1244 88.4811 44.8981C88.2202 45.6723 88.0933 46.3949 88.1002 47.0671C88.1071 47.739 88.2681 48.3259 88.5832 48.8281C88.8988 49.3306 89.4127 49.6902 90.1258 49.9074C90.8664 50.1384 91.5174 50.1448 92.0796 49.9279C92.6418 49.7106 93.1317 49.3507 93.5499 48.8486C93.9681 48.3463 94.3108 47.739 94.5786 47.0263C94.8458 46.3135 95.0584 45.5703 95.2157 44.7966C95.3735 44.0229 95.4729 43.2621 95.5138 42.5161C95.5552 41.7692 95.5552 41.1038 95.5138 40.5202C96.6929 40.0317 97.6595 39.414 98.4135 38.6672C99.1675 37.9211 99.7913 37.1335 100.285 36.3052C100.436 36.1017 100.487 35.8573 100.44 35.5723C100.391 35.2872 100.275 35.0428 100.09 34.8392Z" fill="#0D0C23"/>
<path fill-rule="evenodd" clip-rule="evenodd" d="M125.494 33.6096C125.534 33.2963 125.595 32.9656 125.677 32.6181C125.758 32.2706 125.861 31.9332 125.983 31.6062C126.105 31.2791 126.248 30.9964 126.411 30.7578C126.575 30.5195 126.748 30.3491 126.931 30.2467C127.115 30.1448 127.302 30.1549 127.493 30.2773C127.696 30.4002 127.822 30.659 127.87 31.054C127.917 31.4498 127.87 31.872 127.727 32.3217C127.584 32.7717 127.329 33.1938 126.962 33.5891C126.595 33.9846 126.099 34.2431 125.473 34.3658C125.446 34.1754 125.453 33.9231 125.494 33.6096ZM132.56 34.4475C132.336 34.3798 132.122 34.3728 131.918 34.4273C131.714 34.4817 131.585 34.6249 131.531 34.8567C131.421 35.2927 131.248 35.739 131.01 36.1955C130.772 36.6522 130.48 37.0848 130.134 37.4937C129.787 37.9025 129.395 38.2637 128.961 38.577C128.525 38.8905 128.07 39.1154 127.594 39.2515C127.118 39.4017 126.724 39.4186 126.411 39.3026C126.099 39.1872 125.851 38.9893 125.667 38.71C125.484 38.4307 125.351 38.0933 125.269 37.6981C125.188 37.3028 125.14 36.8942 125.126 36.4714C125.901 36.5261 126.591 36.3866 127.197 36.0523C127.801 35.7188 128.315 35.2756 128.736 34.7237C129.158 34.1718 129.477 33.5517 129.695 32.8634C129.912 32.1754 130.035 31.4905 130.062 30.8089C130.075 30.1684 129.98 29.6269 129.776 29.1839C129.572 28.7412 129.297 28.3966 128.95 28.1515C128.604 27.9061 128.206 27.763 127.757 27.7223C127.309 27.6813 126.853 27.7427 126.391 27.9061C125.833 28.097 125.361 28.4069 124.974 28.8364C124.586 29.2656 124.263 29.7633 124.005 30.3286C123.746 30.8943 123.542 31.504 123.393 32.158C123.243 32.8124 123.135 33.4563 123.067 34.0901C123.005 34.6588 122.973 35.2027 122.961 35.7276C122.932 35.7943 122.904 35.8583 122.873 35.9296C122.662 36.4138 122.417 36.8874 122.139 37.3506C121.86 37.814 121.55 38.2025 121.211 38.5158C120.871 38.8294 120.517 38.9383 120.15 38.8428C119.933 38.7886 119.814 38.536 119.793 38.0866C119.773 37.6366 119.796 37.078 119.864 36.4102C119.933 35.7427 120.011 35.0199 120.099 34.2431C120.187 33.4664 120.231 32.7239 120.231 32.0151C120.231 31.4018 120.116 30.8126 119.885 30.2467C119.653 29.6816 119.337 29.2111 118.937 28.8364C118.535 28.4614 118.07 28.2126 117.54 28.0902C117.009 27.9673 116.438 28.0493 115.826 28.3353C115.214 28.6217 114.728 29.0236 114.368 29.5415C114.007 30.0597 113.678 30.6046 113.379 31.1769C113.27 30.7407 113.11 30.3357 112.9 29.9606C112.688 29.5859 112.431 29.2589 112.125 28.9793C111.818 28.7002 111.475 28.4821 111.095 28.3252C110.714 28.1688 110.312 28.0902 109.891 28.0902C109.483 28.0902 109.106 28.1688 108.759 28.3252C108.413 28.4821 108.096 28.6828 107.811 28.9282C107.525 29.1738 107.267 29.4495 107.036 29.7563C106.805 30.0628 106.6 30.3663 106.424 30.6658C106.396 30.3115 106.366 30.0016 106.332 29.7355C106.298 29.4699 106.237 29.2451 106.149 29.0612C106.06 28.8771 105.935 28.7376 105.771 28.6421C105.608 28.5469 105.377 28.499 105.078 28.499C104.928 28.499 104.779 28.5296 104.629 28.5908C104.479 28.6522 104.347 28.7376 104.232 28.8465C104.116 28.956 104.028 29.0885 103.967 29.2451C103.905 29.4017 103.889 29.5825 103.915 29.7869C103.929 29.937 103.967 30.1173 104.028 30.3286C104.089 30.54 104.146 30.8162 104.201 31.1564C104.255 31.4972 104.3 31.9096 104.333 32.3933C104.368 32.8772 104.378 33.47 104.364 34.1718C104.35 34.8739 104.3 35.6947 104.211 36.635C104.123 37.5754 103.983 38.6657 103.793 39.9056C103.766 40.1919 103.874 40.4238 104.119 40.6009C104.364 40.7778 104.643 40.8799 104.956 40.9074C105.268 40.9347 105.564 40.8799 105.843 40.744C106.121 40.6074 106.282 40.369 106.322 40.0285C106.363 39.388 106.441 38.7067 106.557 37.9842C106.672 37.2621 106.815 36.5466 106.985 35.8378C107.155 35.1293 107.348 34.4548 107.566 33.8139C107.783 33.1734 108.025 32.608 108.29 32.1173C108.555 31.6266 108.831 31.2351 109.116 30.942C109.402 30.6489 109.701 30.5024 110.014 30.5024C110.395 30.5024 110.69 30.6759 110.901 31.0234C111.111 31.3712 111.261 31.8178 111.349 32.3624C111.438 32.9078 111.479 33.5043 111.472 34.1513C111.465 34.7986 111.438 35.4221 111.39 36.0217C111.343 36.6216 111.288 37.1563 111.227 37.6265C111.166 38.0967 111.122 38.4206 111.095 38.5975C111.095 38.911 111.213 39.1595 111.451 39.3436C111.689 39.5275 111.954 39.6367 112.247 39.6707C112.539 39.7049 112.814 39.6501 113.073 39.507C113.331 39.3638 113.481 39.1224 113.522 38.7813C113.658 37.8003 113.845 36.8158 114.082 35.8277C114.32 34.8396 114.592 33.954 114.898 33.1703C115.204 32.3865 115.544 31.746 115.918 31.2485C116.292 30.7514 116.69 30.5024 117.111 30.5024C117.328 30.5024 117.495 30.6526 117.611 30.9521C117.726 31.2519 117.784 31.6606 117.784 32.1785C117.784 32.5603 117.754 32.9522 117.693 33.3541C117.631 33.7561 117.56 34.1718 117.478 34.601C117.397 35.0305 117.325 35.4698 117.264 35.9195C117.203 36.3695 117.172 36.8394 117.172 37.3301C117.172 37.6709 117.206 38.0661 117.274 38.5158C117.342 38.9652 117.471 39.3916 117.661 39.7933C117.852 40.1955 118.114 40.5361 118.447 40.8154C118.78 41.0947 119.205 41.2345 119.721 41.2345C120.497 41.2345 121.183 41.0675 121.782 40.7337C122.38 40.3999 122.893 39.964 123.322 39.4256C123.343 39.3973 123.364 39.3672 123.385 39.3392C123.418 39.4188 123.447 39.5031 123.484 39.5789C123.777 40.1784 124.175 40.6416 124.678 40.9689C125.18 41.2959 125.772 41.4764 126.452 41.5107C127.132 41.5444 127.873 41.4184 128.676 41.1323C129.273 40.9142 129.793 40.6416 130.235 40.3146C130.677 39.9876 131.075 39.589 131.428 39.1188C131.782 38.6486 132.105 38.1068 132.398 37.4937C132.69 36.8801 132.985 36.1786 133.284 35.3879C133.339 35.1703 133.288 34.976 133.132 34.8054C132.975 34.6353 132.785 34.516 132.56 34.4475Z" fill="#0D0C23"/>
<path fill-rule="evenodd" clip-rule="evenodd" d="M143.61 32.1525C143.542 32.5568 143.452 33.0024 143.337 33.4883C143.223 33.9748 143.078 34.4782 142.904 34.9989C142.729 35.5195 142.514 35.9888 142.259 36.4064C142.003 36.8246 141.71 37.1565 141.381 37.4031C141.051 37.6497 140.672 37.7524 140.241 37.7112C140.026 37.6841 139.861 37.5334 139.747 37.2592C139.632 36.9854 139.572 36.6358 139.565 36.2111C139.558 35.7867 139.595 35.3208 139.676 34.8138C139.757 34.3072 139.881 33.8103 140.05 33.3238C140.218 32.8379 140.423 32.3889 140.664 31.9778C140.907 31.5669 141.186 31.2484 141.502 31.0223C141.818 30.7963 142.164 30.6904 142.541 30.7037C142.917 30.7176 143.32 30.9092 143.751 31.2791C143.724 31.4574 143.677 31.7487 143.61 32.1525ZM150.781 33.7245C150.572 33.615 150.357 33.5913 150.135 33.6528C149.913 33.7144 149.755 33.9235 149.661 34.2795C149.607 34.6633 149.487 35.1151 149.298 35.6358C149.11 36.1564 148.878 36.6499 148.603 37.1153C148.326 37.5811 148.011 37.9683 147.654 38.2765C147.298 38.5849 146.918 38.7254 146.515 38.6975C146.178 38.6704 145.943 38.4957 145.808 38.1737C145.674 37.8518 145.603 37.4479 145.597 36.9612C145.59 36.4752 145.637 35.9272 145.738 35.3174C145.839 34.7079 145.96 34.1018 146.101 33.4985C146.242 32.896 146.387 32.317 146.535 31.7622C146.683 31.2074 146.803 30.7381 146.898 30.3546C147.006 30.0121 146.972 29.7211 146.797 29.481C146.622 29.2417 146.404 29.0701 146.142 28.9674C145.879 28.8647 145.614 28.8373 145.344 28.8853C145.075 28.9333 144.901 29.0806 144.82 29.3269C144.027 28.6282 143.263 28.2515 142.531 28.1968C141.797 28.1421 141.121 28.3065 140.503 28.6901C139.885 29.0735 139.337 29.6283 138.859 30.3546C138.382 31.081 137.995 31.8719 137.699 32.7281C137.404 33.5843 137.219 34.4579 137.145 35.3482C137.071 36.2388 137.128 37.0506 137.316 37.7834C137.505 38.5163 137.837 39.1159 138.315 39.5813C138.792 40.0472 139.441 40.2802 140.261 40.2802C140.624 40.2802 140.974 40.2049 141.31 40.0542C141.646 39.9033 141.956 39.7252 142.238 39.5197C142.52 39.3143 142.769 39.0985 142.985 38.8724C143.199 38.6464 143.368 38.4581 143.489 38.3072C143.583 38.8005 143.738 39.2187 143.953 39.5609C144.168 39.9033 144.413 40.1846 144.689 40.4033C144.964 40.6223 145.254 40.7834 145.556 40.8864C145.859 40.9891 146.151 41.0404 146.434 41.0404C147.066 41.0404 147.657 40.8212 148.209 40.3827C148.76 39.9447 149.255 39.4066 149.692 38.7697C150.129 38.1325 150.488 37.4615 150.771 36.7558C151.053 36.0503 151.241 35.4235 151.335 34.8753C151.43 34.6699 151.413 34.4543 151.285 34.2282C151.157 34.0022 150.989 33.8346 150.781 33.7245Z" fill="#0D0C23"/>
<path fill-rule="evenodd" clip-rule="evenodd" d="M187.336 44.8365C187.222 45.2925 187.043 45.6785 186.801 45.9935C186.558 46.3087 186.254 46.4731 185.89 46.4866C185.661 46.4999 185.485 46.3792 185.364 46.1244C185.243 45.8694 185.158 45.5409 185.111 45.1385C185.063 44.736 185.043 44.2864 185.05 43.7902C185.057 43.294 185.077 42.8044 185.111 42.3214C185.144 41.8387 185.185 41.3889 185.233 40.9733C185.279 40.5572 185.316 40.2358 185.343 40.0076C185.802 40.0612 186.184 40.2588 186.487 40.6011C186.791 40.9432 187.023 41.3488 187.185 41.8185C187.347 42.2879 187.441 42.7944 187.468 43.3376C187.495 43.8808 187.451 44.3804 187.336 44.8365ZM180.012 44.8365C179.897 45.2925 179.718 45.6785 179.475 45.9935C179.233 46.3087 178.929 46.4731 178.565 46.4866C178.335 46.4999 178.16 46.3792 178.039 46.1244C177.917 45.8694 177.833 45.5409 177.786 45.1385C177.738 44.736 177.718 44.2864 177.725 43.7902C177.732 43.294 177.752 42.8044 177.786 42.3214C177.819 41.8387 177.86 41.3889 177.907 40.9733C177.954 40.5572 177.991 40.2358 178.019 40.0076C178.477 40.0612 178.859 40.2588 179.162 40.6011C179.465 40.9432 179.698 41.3488 179.86 41.8185C180.022 42.2879 180.116 42.7944 180.143 43.3376C180.17 43.8808 180.126 44.3804 180.012 44.8365ZM172.495 33.4078C172.481 33.7295 172.45 34.0146 172.403 34.2628C172.356 34.5114 172.292 34.6686 172.211 34.7357C172.063 34.6551 171.88 34.4476 171.665 34.1119C171.449 33.7767 171.28 33.3974 171.159 32.9749C171.038 32.5524 171 32.1369 171.048 31.7274C171.094 31.3184 171.308 31.0001 171.685 30.7716C171.833 30.6912 171.961 30.7214 172.069 30.8623C172.178 31.0032 172.265 31.2077 172.333 31.476C172.4 31.7445 172.447 32.0529 172.474 32.4016C172.501 32.7505 172.508 33.0857 172.495 33.4078ZM170.704 37.422C170.495 37.643 170.261 37.8342 170.006 37.9953C169.749 38.1564 169.486 38.2771 169.216 38.3575C168.946 38.4382 168.703 38.4581 168.488 38.4178C167.881 38.2973 167.415 38.0354 167.092 37.6331C166.768 37.2308 166.562 36.758 166.475 36.2148C166.387 35.6713 166.397 35.0911 166.505 34.4741C166.613 33.8571 166.795 33.2838 167.051 32.7538C167.307 32.2239 167.618 31.7677 167.982 31.3856C168.346 31.0032 168.744 30.7653 169.176 30.6711C169.014 31.3552 168.96 32.0631 169.014 32.7939C169.068 33.525 169.243 34.2124 169.54 34.8563C169.729 35.2458 169.955 35.6009 170.218 35.9228C170.481 36.2449 170.801 36.5198 171.179 36.7478C171.071 36.976 170.912 37.2006 170.704 37.422ZM193.094 33.609C193.134 33.3006 193.195 32.9749 193.276 32.6328C193.356 32.291 193.458 31.9589 193.579 31.637C193.7 31.3149 193.842 31.0366 194.004 30.802C194.166 30.5674 194.338 30.3994 194.52 30.2989C194.702 30.1983 194.888 30.2083 195.076 30.329C195.279 30.45 195.404 30.7048 195.451 31.0935C195.498 31.4828 195.451 31.8984 195.309 32.3413C195.167 32.7839 194.915 33.1998 194.55 33.5886C194.187 33.9781 193.694 34.2326 193.073 34.3534C193.046 34.1657 193.053 33.9176 193.094 33.609ZM201.248 33.609C201.289 33.3006 201.349 32.9749 201.43 32.6328C201.511 32.291 201.613 31.9589 201.734 31.637C201.855 31.3149 201.997 31.0366 202.159 30.802C202.321 30.5674 202.493 30.3994 202.675 30.2989C202.857 30.1983 203.043 30.2083 203.231 30.329C203.434 30.45 203.558 30.7048 203.606 31.0935C203.653 31.4828 203.606 31.8984 203.464 32.3413C203.322 32.7839 203.069 33.1998 202.705 33.5886C202.341 33.9781 201.849 34.2326 201.228 34.3534C201.201 34.1657 201.208 33.9176 201.248 33.609ZM208.826 34.7861C208.671 34.6186 208.482 34.5011 208.26 34.4338C208.037 34.3669 207.825 34.3602 207.622 34.4139C207.42 34.4674 207.292 34.6084 207.238 34.8363C207.13 35.2657 206.958 35.705 206.722 36.154C206.486 36.6038 206.196 37.0296 205.852 37.4319C205.508 37.8342 205.12 38.1901 204.689 38.4984C204.256 38.8071 203.805 39.0284 203.333 39.1621C202.86 39.3102 202.469 39.3268 202.159 39.2127C201.849 39.0989 201.602 38.9043 201.42 38.6294C201.238 38.3542 201.107 38.0223 201.026 37.6331C200.945 37.2443 200.898 36.842 200.884 36.4259C201.653 36.4798 202.338 36.3424 202.938 36.0134C203.538 35.6848 204.048 35.2486 204.466 34.7054C204.884 34.1624 205.201 33.5521 205.417 32.8746C205.632 32.1971 205.754 31.5232 205.781 30.8523C205.794 30.2218 205.7 29.6885 205.497 29.2525C205.296 28.8168 205.022 28.4778 204.678 28.2365C204.334 27.9948 203.94 27.8541 203.494 27.8138C203.049 27.7735 202.597 27.8343 202.139 27.9948C201.586 28.183 201.117 28.488 200.733 28.9105C200.348 29.3332 200.028 29.8231 199.771 30.3793C199.515 30.9363 199.312 31.5362 199.164 32.1802C199.015 32.824 198.908 33.4581 198.841 34.0817C198.775 34.687 198.739 35.2662 198.731 35.8206C198.68 35.9312 198.626 36.0422 198.567 36.154C198.331 36.6038 198.041 37.0296 197.697 37.4319C197.353 37.8342 196.965 38.1901 196.534 38.4984C196.102 38.8071 195.65 39.0284 195.178 39.1621C194.705 39.3102 194.314 39.3268 194.004 39.2127C193.694 39.0989 193.448 38.9043 193.266 38.6294C193.084 38.3542 192.952 38.0223 192.871 37.6331C192.79 37.2443 192.743 36.842 192.729 36.4259C193.498 36.4798 194.183 36.3424 194.783 36.0134C195.383 35.6848 195.893 35.2486 196.311 34.7054C196.729 34.1624 197.046 33.5521 197.262 32.8746C197.477 32.1971 197.599 31.5232 197.626 30.8523C197.639 30.2218 197.545 29.6885 197.343 29.2525C197.141 28.8168 196.867 28.4778 196.523 28.2365C196.179 27.9948 195.785 27.8541 195.339 27.8138C194.894 27.7735 194.442 27.8343 193.984 27.9948C193.431 28.183 192.962 28.488 192.578 28.9105C192.193 29.3332 191.873 29.8231 191.616 30.3793C191.36 30.9363 191.158 31.5362 191.009 32.1802C190.861 32.824 190.753 33.4581 190.686 34.0817C190.648 34.4335 190.622 34.7745 190.603 35.1095C190.472 35.2197 190.346 35.3308 190.21 35.4398C189.745 35.8155 189.256 36.154 188.743 36.456C188.23 36.758 187.697 37.0061 187.145 37.2006C186.591 37.3951 186.025 37.5126 185.445 37.5527L186.7 24.192C186.78 23.9102 186.74 23.6624 186.578 23.4477C186.416 23.233 186.207 23.0854 185.95 23.005C185.694 22.9244 185.421 22.9313 185.131 23.025C184.841 23.1191 184.602 23.3338 184.413 23.6687C184.318 24.1788 184.22 24.8762 184.119 25.7614C184.018 26.6467 183.917 27.6127 183.816 28.659C183.715 29.7054 183.613 30.7852 183.512 31.8984C183.411 33.0121 183.323 34.0516 183.249 35.0173C183.246 35.0602 183.243 35.099 183.24 35.1414C183.122 35.2409 183.007 35.3412 182.885 35.4398C182.42 35.8155 181.93 36.154 181.418 36.456C180.905 36.758 180.372 37.0061 179.82 37.2006C179.266 37.3951 178.699 37.5126 178.12 37.5527L179.374 24.192C179.455 23.9102 179.415 23.6624 179.253 23.4477C179.091 23.233 178.882 23.0854 178.626 23.005C178.369 22.9244 178.096 22.9313 177.806 23.025C177.516 23.1191 177.277 23.3338 177.088 23.6687C176.993 24.1788 176.896 24.8762 176.795 25.7614C176.693 26.6467 176.592 27.6127 176.491 28.659C176.389 29.7054 176.289 30.7852 176.187 31.8984C176.086 33.0121 175.998 34.0516 175.924 35.0173C175.923 35.0367 175.921 35.0543 175.92 35.0737C175.708 35.1715 175.477 35.2573 175.226 35.3293C174.97 35.4033 174.68 35.447 174.356 35.4602C174.41 35.2185 174.453 34.9502 174.487 34.6551C174.521 34.3602 174.549 34.0516 174.568 33.7295C174.589 33.4078 174.595 33.0857 174.589 32.7638C174.582 32.4416 174.565 32.1468 174.538 31.8782C174.471 31.3018 174.346 30.7551 174.164 30.2384C173.982 29.7222 173.736 29.2898 173.426 28.9406C173.115 28.5919 172.727 28.3571 172.262 28.2365C171.796 28.1158 171.253 28.1559 170.633 28.3571C169.715 28.2365 168.889 28.3205 168.154 28.6087C167.419 28.8974 166.781 29.3163 166.242 29.8662C165.702 30.4166 165.261 31.0634 164.917 31.8081C164.572 32.5524 164.343 33.3172 164.228 34.1017C164.18 34.4343 164.156 34.7654 164.149 35.0957C163.94 35.521 163.712 35.8926 163.459 36.2046C163.102 36.6472 162.731 37.0094 162.347 37.291C161.962 37.5728 161.581 37.7875 161.203 37.9351C160.825 38.0829 160.488 38.1834 160.192 38.2368C159.841 38.3039 159.504 38.3108 159.18 38.2569C158.856 38.2036 158.559 38.0492 158.29 37.7942C158.074 37.6065 157.909 37.3045 157.794 36.8887C157.679 36.4729 157.612 36.0003 157.592 35.4702C157.571 34.9402 157.592 34.3868 157.652 33.8102C157.713 33.2335 157.817 32.6867 157.966 32.1703C158.114 31.6538 158.303 31.1911 158.532 30.7816C158.761 30.3729 159.031 30.0809 159.342 29.9065C159.517 29.9336 159.625 30.0372 159.666 30.2182C159.706 30.3994 159.716 30.6142 159.696 30.8623C159.676 31.1107 159.645 31.3654 159.605 31.6268C159.564 31.8885 159.544 32.1067 159.544 32.2808C159.612 32.643 159.743 32.9249 159.939 33.126C160.134 33.3271 160.354 33.4448 160.596 33.478C160.839 33.5117 161.078 33.4548 161.315 33.307C161.551 33.1597 161.743 32.9249 161.891 32.6027C161.905 32.6162 161.925 32.6229 161.952 32.6229L162.235 30.0676C162.316 29.7187 162.262 29.4103 162.073 29.142C161.885 28.8737 161.635 28.7193 161.325 28.6792C160.934 28.1158 160.404 27.8174 159.736 27.7837C159.069 27.7503 158.384 27.9683 157.683 28.4377C157.251 28.7466 156.87 29.1721 156.539 29.7153C156.208 30.2588 155.939 30.8623 155.73 31.5262C155.52 32.1902 155.372 32.8914 155.285 33.6291C155.197 34.3669 155.18 35.0847 155.234 35.7818C155.288 36.4798 155.413 37.1371 155.609 37.7538C155.804 38.371 156.077 38.8875 156.428 39.303C156.725 39.6653 157.062 39.9305 157.44 40.0982C157.817 40.2659 158.212 40.3696 158.623 40.4099C159.035 40.45 159.443 40.4331 159.848 40.3596C160.252 40.2861 160.637 40.1822 161.001 40.0477C161.473 39.8736 161.959 39.652 162.458 39.3837C162.957 39.1157 163.436 38.7935 163.895 38.4178C164.136 38.2202 164.368 38.0047 164.593 37.7737C164.695 38.0259 164.809 38.27 164.947 38.4984C165.311 39.1019 165.803 39.5918 166.424 39.9673C167.044 40.3428 167.807 40.5235 168.711 40.5105C169.682 40.497 170.579 40.2524 171.402 39.7761C172.225 39.3002 172.899 38.5988 173.426 37.6734C174.214 37.6734 174.989 37.5442 175.751 37.2877C175.744 37.3689 175.738 37.4544 175.732 37.5327C175.678 38.2437 175.651 38.7264 175.651 38.9814C175.638 39.4241 175.608 39.9706 175.56 40.621C175.513 41.2717 175.482 41.9558 175.469 42.6734C175.456 43.391 175.482 44.1154 175.55 44.8468C175.618 45.5776 175.759 46.2418 175.975 46.8389C176.19 47.4355 176.497 47.9419 176.896 48.358C177.293 48.7736 177.816 49.022 178.464 49.1024C179.152 49.1961 179.745 49.0753 180.244 48.7401C180.743 48.4047 181.148 47.9455 181.459 47.362C181.769 46.7781 181.988 46.1042 182.116 45.3397C182.244 44.5752 182.281 43.8071 182.227 43.0356C182.174 42.2642 182.032 41.5367 181.802 40.8528C181.573 40.1684 181.256 39.605 180.851 39.1621C181.094 39.0955 181.384 38.9682 181.722 38.78C182.059 38.5924 182.406 38.381 182.764 38.1462C182.852 38.0885 182.938 38.0277 183.026 37.9685C182.993 38.4438 182.976 38.7828 182.976 38.9814C182.963 39.4241 182.933 39.9706 182.885 40.621C182.838 41.2717 182.808 41.9558 182.794 42.6734C182.781 43.391 182.808 44.1154 182.875 44.8468C182.943 45.5776 183.084 46.2418 183.3 46.8389C183.516 47.4355 183.823 47.9419 184.22 48.358C184.618 48.7736 185.141 49.022 185.789 49.1024C186.476 49.1961 187.07 49.0753 187.57 48.7401C188.068 48.4047 188.473 47.9455 188.784 47.362C189.094 46.7781 189.313 46.1042 189.441 45.3397C189.569 44.5752 189.606 43.8071 189.553 43.0356C189.498 42.2642 189.357 41.5367 189.128 40.8528C188.898 40.1684 188.581 39.605 188.176 39.1621C188.419 39.0955 188.709 38.9682 189.047 38.78C189.384 38.5924 189.731 38.381 190.089 38.1462C190.275 38.0242 190.459 37.8983 190.643 37.7689C190.713 38.4249 190.862 39.0003 191.1 39.4843C191.39 40.0748 191.785 40.5307 192.284 40.8528C192.783 41.1744 193.37 41.3524 194.045 41.3858C194.719 41.419 195.454 41.2952 196.251 41.0134C196.844 40.7989 197.36 40.5307 197.798 40.2087C198.236 39.8866 198.631 39.4943 198.982 39.0317C199.002 39.0049 199.021 38.9758 199.041 38.9487C199.104 39.1366 199.173 39.3171 199.255 39.4843C199.545 40.0748 199.94 40.5307 200.439 40.8528C200.938 41.1744 201.525 41.3524 202.199 41.3858C202.874 41.419 203.609 41.2952 204.405 41.0134C204.999 40.7989 205.515 40.5307 205.953 40.2087C206.391 39.8866 206.786 39.4943 207.137 39.0317C207.487 38.5686 207.807 38.0354 208.098 37.4319C208.388 36.8282 208.681 36.1377 208.978 35.3594C209.032 35.145 208.981 34.9537 208.826 34.7861Z" fill="#0D0C23"/>
</svg>
