<svg width="18" height="15" viewBox="0 0 18 15" fill="none" xmlns="http://www.w3.org/2000/svg">
<path d="M18 7.498C17.9897 7.22988 17.8815 6.9199 17.7012 6.72449L11.8188 0.349222C11.4203 -0.0162057 10.6558 -0.166877 10.2103 0.255578C9.77154 0.671752 9.78462 1.47849 10.2216 1.89622L14.3576 6.37296H1.103C0.493937 6.37296 0 6.87677 0 7.49804C0 8.11931 0.493918 8.62312 1.103 8.62312H14.3576L10.2216 13.0999C9.84514 13.4844 9.77565 14.3199 10.2103 14.7405C10.6448 15.1614 11.4364 15.0269 11.8188 14.6466L17.7012 8.27133C17.9025 8.05317 18.0005 7.79727 18 7.498Z" fill="url(#paint0_linear_870_91)"/>
<defs>
<linearGradient id="paint0_linear_870_91" x1="-2.55249e-08" y1="-0.921052" x2="20.5672" y2="2.90284" gradientUnits="userSpaceOnUse">
<stop stop-color="#53E88B"/>
<stop offset="1" stop-color="#15BE77"/>
</linearGradient>
</defs>
</svg>
