<svg width="2281" height="503" viewBox="0 0 2281 503" fill="none" xmlns="http://www.w3.org/2000/svg">
<path d="M744.15 196.075C740.282 188.946 734.684 183.548 727.356 179.882C720.231 176.012 711.783 174.077 702.011 174.077C685.115 174.077 671.578 179.678 661.399 190.881C651.221 201.88 646.132 216.647 646.132 235.183C646.132 254.94 651.424 270.42 662.01 281.623C672.799 292.622 687.558 298.122 706.286 298.122C719.111 298.122 729.9 294.863 738.654 288.345C747.611 281.827 754.125 272.457 758.197 260.236H691.935V221.739H805.526V270.319C801.659 283.355 795.043 295.474 785.678 306.677C776.518 317.879 764.813 326.943 750.563 333.869C736.313 340.794 720.231 344.257 702.317 344.257C681.146 344.257 662.214 339.674 645.521 330.508C629.032 321.138 616.105 308.204 606.741 291.706C597.58 275.207 593 256.366 593 235.183C593 213.999 597.58 195.158 606.741 178.66C616.105 161.958 629.032 149.023 645.521 139.858C662.01 130.488 680.84 125.803 702.011 125.803C727.661 125.803 749.24 132.016 766.747 144.44C784.457 156.865 796.162 174.077 801.862 196.075H744.15Z" fill="white"/>
<path d="M886.665 200.658C892.772 191.288 900.406 183.956 909.566 178.66C918.727 173.16 928.905 170.411 940.102 170.411V225.711H925.75C912.722 225.711 902.95 228.563 896.436 234.266C889.922 239.766 886.665 249.543 886.665 263.597V342.729H834.449V172.244H886.665V200.658Z" fill="white"/>
<path d="M954.678 257.181C954.678 239.664 957.935 224.286 964.449 211.046C971.167 197.806 980.226 187.622 991.625 180.493C1003.03 173.364 1015.75 169.799 1029.79 169.799C1041.81 169.799 1052.29 172.244 1061.25 177.132C1070.41 182.021 1077.43 188.437 1082.32 196.381V172.244H1134.53V342.729H1082.32V318.592C1077.23 326.536 1070.1 332.952 1060.94 337.841C1051.98 342.729 1041.5 345.173 1029.49 345.173C1015.65 345.173 1003.03 341.609 991.625 334.48C980.226 327.147 971.167 316.861 964.449 303.621C957.935 290.178 954.678 274.698 954.678 257.181ZM1082.32 257.486C1082.32 244.45 1078.65 234.164 1071.32 226.628C1064.2 219.092 1055.44 215.323 1045.06 215.323C1034.68 215.323 1025.83 219.092 1018.5 226.628C1011.37 233.961 1007.81 244.145 1007.81 257.181C1007.81 270.217 1011.37 280.605 1018.5 288.345C1025.83 295.881 1034.68 299.649 1045.06 299.649C1055.44 299.649 1064.2 295.881 1071.32 288.345C1078.65 280.809 1082.32 270.522 1082.32 257.486Z" fill="white"/>
<path d="M1224.52 196.381C1229.61 188.437 1236.63 182.021 1245.59 177.132C1254.55 172.244 1265.03 169.799 1277.04 169.799C1291.09 169.799 1303.81 173.364 1315.21 180.493C1326.61 187.622 1335.57 197.806 1342.08 211.046C1348.8 224.286 1352.16 239.664 1352.16 257.181C1352.16 274.698 1348.8 290.178 1342.08 303.621C1335.57 316.861 1326.61 327.147 1315.21 334.48C1303.81 341.609 1291.09 345.173 1277.04 345.173C1265.24 345.173 1254.75 342.729 1245.59 337.841C1236.63 332.952 1229.61 326.638 1224.52 318.898V424H1172.31V172.244H1224.52V196.381ZM1299.03 257.181C1299.03 244.145 1295.36 233.961 1288.04 226.628C1280.91 219.092 1272.06 215.323 1261.47 215.323C1251.09 215.323 1242.23 219.092 1234.9 226.628C1227.78 234.164 1224.22 244.45 1224.22 257.486C1224.22 270.522 1227.78 280.809 1234.9 288.345C1242.23 295.881 1251.09 299.649 1261.47 299.649C1271.85 299.649 1280.71 295.881 1288.04 288.345C1295.36 280.605 1299.03 270.217 1299.03 257.181Z" fill="white"/>
<path d="M1484.29 170.411C1503.83 170.411 1519.51 176.928 1531.32 189.964C1543.12 202.797 1549.03 220.517 1549.03 243.127V342.729H1497.12V250.154C1497.12 238.747 1494.16 229.887 1488.26 223.573C1482.36 217.258 1474.42 214.101 1464.44 214.101C1454.47 214.101 1446.53 217.258 1440.62 223.573C1434.72 229.887 1431.77 238.747 1431.77 250.154V342.729H1379.55V116.637H1431.77V195.158C1437.06 187.622 1444.29 181.613 1453.45 177.132C1462.61 172.651 1472.89 170.411 1484.29 170.411Z" fill="white"/>
<path d="M1611.57 154.523C1602.41 154.523 1594.88 151.875 1588.97 146.579C1583.27 141.08 1580.42 134.358 1580.42 126.414C1580.42 118.267 1583.27 111.545 1588.97 106.249C1594.88 100.75 1602.41 98 1611.57 98C1620.53 98 1627.86 100.75 1633.56 106.249C1639.46 111.545 1642.41 118.267 1642.41 126.414C1642.41 134.358 1639.46 141.08 1633.56 146.579C1627.86 151.875 1620.53 154.523 1611.57 154.523ZM1637.53 172.244V342.729H1585.31V172.244H1637.53Z" fill="white"/>
<path d="M1664.98 257.486C1664.98 239.766 1668.55 224.286 1675.67 211.046C1683 197.806 1693.08 187.622 1705.9 180.493C1718.93 173.364 1733.79 169.799 1750.48 169.799C1771.86 169.799 1789.67 175.401 1803.92 186.604C1818.37 197.806 1827.84 213.592 1832.32 233.961H1776.74C1772.06 220.925 1763 214.407 1749.57 214.407C1740 214.407 1732.37 218.175 1726.67 225.711C1720.97 233.044 1718.12 243.636 1718.12 257.486C1718.12 271.337 1720.97 282.031 1726.67 289.567C1732.37 296.9 1740 300.566 1749.57 300.566C1763 300.566 1772.06 294.048 1776.74 281.012H1832.32C1827.84 300.973 1818.37 316.657 1803.92 328.064C1789.47 339.47 1771.65 345.173 1750.48 345.173C1733.79 345.173 1718.93 341.609 1705.9 334.48C1693.08 327.351 1683 317.167 1675.67 303.927C1668.55 290.687 1664.98 275.207 1664.98 257.486Z" fill="white"/>
<path d="M1917.04 127.331V252.292C1917.04 263.903 1919.69 272.865 1924.98 279.179C1930.48 285.493 1938.72 288.65 1949.72 288.65C1960.71 288.65 1968.95 285.493 1974.45 279.179C1980.15 272.661 1983 263.699 1983 252.292V127.331H2042.85V252.292C2042.85 272.05 2038.68 288.956 2030.33 303.01C2021.98 316.861 2010.58 327.351 1996.13 334.48C1981.88 341.405 1966 344.868 1948.5 344.868C1930.99 344.868 1915.31 341.405 1901.47 334.48C1887.83 327.351 1877.04 316.861 1869.1 303.01C1861.37 289.16 1857.5 272.254 1857.5 252.292V127.331H1917.04Z" fill="white"/>
<path d="M2210.46 342.729L2168.63 281.929L2132.9 342.729H2064.81L2134.74 232.433L2062.37 127.331H2132.9L2173.52 186.604L2208.33 127.331H2276.42L2207.41 235.794L2281 342.729H2210.46Z" fill="white"/>
<path d="M343.218 467.215L319.175 443.172L353.403 408.94C356.514 405.829 356.514 400.786 353.403 397.675C350.292 394.564 345.249 394.564 342.138 397.675L343.906 399.443L342.138 397.675L307.91 431.907L283.863 407.86L301.249 390.478L301.249 390.477C304.36 387.366 304.36 382.323 301.249 379.212C298.138 376.101 293.095 376.101 289.984 379.212C289.984 379.212 289.984 379.212 289.984 379.212L272.598 396.595L248.555 372.552L282.786 338.324L281.112 336.649L282.787 338.324C285.897 335.213 285.898 330.169 282.786 327.058C279.676 323.948 274.632 323.948 271.521 327.058L237.289 361.286L213.249 337.246L230.636 319.86C233.747 316.749 233.747 311.705 230.636 308.594C227.525 305.484 222.482 305.484 219.371 308.595L201.984 325.981L177.937 301.934L212.173 267.702L210.494 266.022L212.173 267.702C215.284 264.591 215.284 259.547 212.173 256.437C209.062 253.326 204.019 253.326 200.908 256.437C200.908 256.437 200.908 256.437 200.908 256.437L166.672 290.669L142.628 266.622L160.011 249.239L158.379 247.607L160.011 249.239C163.122 246.128 163.122 241.085 160.011 237.974C156.9 234.863 151.857 234.863 148.746 237.974L131.363 255.356L107.323 231.316L141.551 197.084C144.662 193.973 144.662 188.93 141.551 185.819C138.44 182.708 133.397 182.708 130.286 185.819L130.286 185.819L96.058 220.051L72.0109 196.004L89.3975 178.617L87.777 176.997L89.3975 178.617C92.5082 175.506 92.5085 170.463 89.3975 167.352C86.2865 164.241 81.2432 164.241 78.1323 167.352L60.7457 184.739L36.7027 160.696L70.9346 126.468L70.9347 126.467C74.0454 123.357 74.0457 118.313 70.9346 115.202C67.8237 112.092 62.7805 112.091 59.6696 115.202C59.6696 115.202 59.6695 115.202 59.6695 115.202L25.4375 149.43L14.309 138.302C3.897 127.89 3.897 111.01 14.309 100.598L101.141 13.7655C111.553 3.35354 128.433 3.35354 138.845 13.7655L490.032 364.952L490.034 364.955L490.171 365.091L490.172 365.093C500.585 375.506 500.582 392.383 490.152 402.773L490.148 402.777L403.316 489.609C392.904 500.021 376.024 500.021 365.612 489.609L354.483 478.48L371.862 461.094C374.973 457.983 374.973 452.94 371.862 449.829C368.751 446.718 363.708 446.718 360.597 449.829L360.596 449.829L343.218 467.215ZM96.3617 43.8878L96.3611 43.8884C83.7151 56.5433 83.7142 77.1228 96.3616 89.7703C102.688 96.0969 111.002 99.259 119.293 99.259C127.265 99.259 135.251 96.3409 141.479 90.5026H141.504L142.235 89.771L142.236 89.7701C154.883 77.1189 154.883 56.5396 142.241 43.8884L142.239 43.8869C129.945 31.6054 108.659 31.5903 96.3617 43.8878Z" fill="#FFE692" stroke="#2A2A51" stroke-width="5"/>
<path d="M119.294 47.8325C114.435 47.8325 109.567 49.6841 105.861 53.3912C98.4504 60.8015 98.4504 72.8643 105.861 80.2754C113.271 87.6938 125.327 87.6815 132.741 80.2754C140.151 72.8652 140.151 60.8023 132.741 53.3912C129.034 49.6881 124.162 47.8325 119.295 47.8325H119.294Z" fill="#77B52E"/>
<path d="M185.265 412.03L90.7548 317.52L56.9395 447.327L185.265 412.03Z" fill="white" stroke="#2A2A51" stroke-width="5"/>
<path d="M356.429 44.563L458.064 146.198L499.091 105.171L397.456 3.53572L356.429 44.563Z" fill="white" stroke="#2A2A51" stroke-width="5"/>
<path d="M104.822 303.488L197.351 396.016L438.587 154.779L346.059 62.2512L104.822 303.488Z" fill="#79B531" stroke="#2A2A51" stroke-width="5"/>
<path d="M101.163 299.829L123.816 322.481L365.053 81.2449L342.4 58.5921L101.163 299.829Z" fill="#79B531" stroke="#2A2A51" stroke-width="5"/>
<path d="M178.304 376.969L202.802 401.467L444.038 160.23L419.54 135.732L178.304 376.969Z" fill="#79B531" stroke="#2A2A51" stroke-width="5"/>
</svg>
