<svg width="426" height="423" viewBox="0 0 426 423" fill="none" xmlns="http://www.w3.org/2000/svg">
<path fill-rule="evenodd" clip-rule="evenodd" d="M294.211 74.9217C296.107 73.0488 336.427 46.9282 336.427 46.9282C336.427 46.9282 311.775 94.0508 310.519 126.028C307.484 203.681 384.594 292.689 247.799 331.42C166.613 354.412 131.603 378.046 141.819 480.067C141.819 480.067 51.5078 441.05 51.4371 430.762C51.3418 420.474 34.5596 335.829 107.331 313.239C180.078 290.673 249.055 301.315 270.388 264.314C291.698 227.312 278.187 117.635 283.876 97.1793C289.541 76.7239 294.211 74.9217 294.211 74.9217Z" fill="#53008B"/>
<path fill-rule="evenodd" clip-rule="evenodd" d="M306.538 59.3254C310.615 55.865 336.429 46.9282 336.429 46.9282C336.429 46.9282 314.36 67.1708 307.155 102.585C299.949 138.022 303.717 167.818 303.717 212.025C303.717 256.256 293.359 277.258 263.563 288.233C233.768 299.208 143.789 294.515 119.327 335.285C94.8641 376.032 102.378 413.034 103.327 420.571C104.275 428.085 103.943 431.238 95.4804 428.725C87.0178 426.213 25.2464 423.393 25.2464 423.393C25.2464 423.393 17.4001 343.108 46.8876 305.489C76.3513 267.848 209.33 262.847 238.177 226.462C267.025 190.076 260.743 126.123 276.435 97.2756C292.101 68.4273 306.538 59.3254 306.538 59.3254Z" fill="#E31796"/>
<path fill-rule="evenodd" clip-rule="evenodd" d="M336.427 46.9284C246.993 44.5108 271.715 191.356 223.906 228.191C161.967 274.319 5.78359 235.8 0 368.043L11.2829 437.021L51.4369 430.763C47.1703 239.497 171.07 309.732 248.984 257.655C314.644 223.544 240.688 89.1919 336.427 46.9284Z" fill="#FFCB12"/>
<path d="M420.653 3.02441H338.584V3.90581H420.653V3.02441Z" fill="#002940"/>
<path d="M420.912 6.63161C422.66 6.63161 424.077 5.21429 424.077 3.46595C424.077 1.7176 422.66 0.300293 420.912 0.300293C419.163 0.300293 417.746 1.7176 417.746 3.46595C417.746 5.21429 419.163 6.63161 420.912 6.63161Z" fill="#002940"/>
<path d="M338.326 6.63161C340.074 6.63161 341.491 5.21429 341.491 3.46595C341.491 1.7176 340.074 0.300293 338.326 0.300293C336.577 0.300293 335.16 1.7176 335.16 3.46595C335.16 5.21429 336.577 6.63161 338.326 6.63161Z" fill="#002940"/>
<path d="M379.618 2.3252C401.26 2.3252 418.867 19.9319 418.867 41.574H416.586C416.586 21.1893 400.003 4.60616 379.618 4.60616C359.233 4.60616 342.65 21.1893 342.65 41.574H340.369C340.369 19.9319 357.976 2.3252 379.618 2.3252Z" fill="#002940"/>
<path d="M340.099 38.415H342.611C343.662 38.415 344.521 39.2743 344.521 40.3243V42.2089C344.521 43.2589 343.661 44.1182 342.611 44.1182H340.099C339.048 44.1182 338.189 43.2589 338.189 42.2089V40.3243C338.189 39.2743 339.049 38.415 340.099 38.415Z" fill="#002940"/>
<path d="M416.622 38.415H419.135C420.185 38.415 421.044 39.2743 421.044 40.3243V42.2089C421.044 43.2589 420.185 44.1182 419.135 44.1182H416.622C415.571 44.1182 414.713 43.2589 414.713 42.2089V40.3243C414.713 39.2743 415.571 38.415 416.622 38.415Z" fill="#002940"/>
<path d="M378.361 0H380.874C381.925 0 382.783 0.859277 382.783 1.9093V3.79384C382.783 4.84386 381.924 5.70314 380.874 5.70314H378.361C377.311 5.70314 376.452 4.84386 376.452 3.79384V1.9093C376.452 0.859277 377.311 0 378.361 0Z" fill="#002940"/>
<path fill-rule="evenodd" clip-rule="evenodd" d="M368.055 87.1429L337.99 53.3924C344.385 70.7799 348.058 88.3425 349.79 106.038C360.591 105.407 368.863 109.128 375.371 115.891L387.045 105.491L398.71 95.1001C392.741 87.8573 389.997 79.2122 391.867 68.5567C374.489 64.7982 357.465 59.1274 340.93 50.7739L370.994 84.5244C372.483 84.1438 374.123 84.5941 375.208 85.8121C376.772 87.5694 376.616 90.2704 374.872 91.824C373.116 93.3896 370.414 93.2328 368.85 91.4764C367.763 90.2585 367.505 88.5773 368.055 87.1429Z" fill="#002940"/>
<path d="M382.768 125.023L406.541 103.845L400.271 96.8066L376.498 117.985L382.768 125.023Z" fill="#002940"/>
<path fill-rule="evenodd" clip-rule="evenodd" d="M384.256 126.669L408.029 105.493L425.345 124.932L425.322 124.953C425.355 124.966 425.387 125.002 425.408 125.024C426.398 126.137 421.885 131.775 415.315 137.627C408.746 143.479 402.626 147.314 401.635 146.202C401.615 146.179 401.583 146.143 401.574 146.109L384.256 126.669Z" fill="#002940"/>
</svg>
