<svg width="100" height="100" viewBox="0 0 100 100" fill="none" xmlns="http://www.w3.org/2000/svg">
<rect opacity="0.2" width="100" height="100" rx="15" transform="matrix(-1 0 0 1 100 0)" fill="url(#paint0_linear_839_1801)"/>
<mask id="mask0_839_1801" style="mask-type:alpha" maskUnits="userSpaceOnUse" x="25" y="24" width="50" height="52">
<path fill-rule="evenodd" clip-rule="evenodd" d="M56.6592 29.8074C49.7781 22.4312 38.1774 22.0271 30.8002 28.9071C27.3065 32.1739 25.231 36.679 25.0181 41.4573C24.8053 46.2357 26.472 50.9074 29.6614 54.4719C32.8508 58.0365 37.3091 60.2104 42.0817 60.5281C46.8542 60.8458 51.5614 59.282 55.1951 56.1716L55.1962 56.1707L58.6333 59.8552L56.6982 61.6612L69.1417 74.5291C69.4442 74.8537 69.808 75.1153 70.2121 75.2988C70.6161 75.4822 71.0525 75.584 71.496 75.5981H71.6163C72.2758 75.5973 72.9209 75.404 73.4722 75.042C74.0235 74.6799 74.4571 74.1647 74.7199 73.5597C74.9826 72.9547 75.063 72.2862 74.9513 71.6361C74.8396 70.9861 74.5405 70.3828 74.0908 69.9003V69.9013L61.6493 57.0405L59.7414 58.8211L56.3046 55.1369C59.6198 51.7763 61.5078 47.2644 61.5741 42.5442C61.6404 37.8235 59.8794 33.2599 56.6592 29.8074ZM58.1476 42.8117C58.0138 46.6628 56.3907 50.3118 53.6201 52.99C50.8495 55.6682 47.1477 57.1667 43.2942 57.1699C43.1184 57.1699 42.9416 57.1669 42.7637 57.1608C40.8106 57.0981 38.8893 56.6486 37.1111 55.8385C35.3328 55.0284 33.7328 53.8736 32.4038 52.4411C26.809 46.4391 27.1374 37.0118 33.1353 31.417C35.2866 29.4101 37.9848 28.0862 40.8885 27.6128C43.7923 27.1393 46.7712 27.5377 49.4486 28.7574C52.1259 29.9771 54.3814 31.9634 55.9299 34.465C57.4783 36.9667 58.2501 39.8714 58.1476 42.8117ZM48.5764 33.6718L47.8277 34.9854C46.7237 34.358 45.507 33.9542 44.247 33.7972C42.987 33.6401 41.7083 33.7328 40.4841 34.0699C39.2599 34.407 38.1141 34.982 37.1122 35.762C36.1102 36.542 35.2717 37.5118 34.6446 38.6159L33.331 37.8681C34.7969 35.2907 37.2262 33.4008 40.085 32.6139C42.9438 31.827 45.9981 32.2076 48.5764 33.6718Z" fill="#15BE77"/>
</mask>
<g mask="url(#mask0_839_1801)">
<rect x="24" y="24" width="52" height="52" fill="url(#paint1_linear_839_1801)"/>
</g>
<defs>
<linearGradient id="paint0_linear_839_1801" x1="-1.41805e-07" y1="-6.14035" x2="115.441" y2="11.7455" gradientUnits="userSpaceOnUse">
<stop stop-color="#FFE350"/>
<stop offset="1" stop-color="#15BE77"/>
</linearGradient>
<linearGradient id="paint1_linear_839_1801" x1="24" y1="20.807" x2="84.0291" y2="30.1076" gradientUnits="userSpaceOnUse">
<stop stop-color="#FFE350"/>
<stop offset="1" stop-color="#15BE77"/>
</linearGradient>
</defs>
</svg>
