<svg width="100" height="100" viewBox="0 0 100 100" fill="none" xmlns="http://www.w3.org/2000/svg">
<rect opacity="0.2" width="100" height="100" rx="15" transform="matrix(-1 0 0 1 100 0)" fill="url(#paint0_linear_839_1800)"/>
<mask id="mask0_839_1800" style="mask-type:alpha" maskUnits="userSpaceOnUse" x="25" y="26" width="50" height="49">
<path d="M26.1763 48.3888L35.8871 57.2903L33.1896 69.6986C32.9199 71.3171 33.4594 72.9355 34.8081 73.7448C35.3476 74.2842 36.1568 74.554 36.966 74.554C37.5055 74.554 38.045 74.554 38.5845 74.2842C38.5845 74.2842 38.8543 74.2842 38.8543 74.0145L49.9138 67.8104L60.9733 74.0145C60.9733 74.0145 61.243 74.0145 61.243 74.2842C62.5918 74.8237 64.2102 74.8237 65.2892 74.0145C66.6379 73.2053 67.1774 71.5868 66.9077 69.9683L64.2102 57.5601C65.2892 56.7509 66.9077 55.1324 68.5261 53.5139L73.6513 48.9283L73.921 48.6585C75 47.5795 75.2697 45.9611 74.7303 44.6124C74.1908 43.2636 73.1118 42.1847 71.4933 41.9149H71.2236L58.5456 40.5662L53.4205 28.9672C53.4205 28.9672 53.4205 28.6974 53.1507 28.6974C52.881 26.8092 51.5322 26 50.1835 26C48.8348 26 47.4861 26.8092 46.6768 28.158C46.6768 28.158 46.6768 28.4277 46.4071 28.4277L41.282 40.0267L28.604 41.3754H28.3342C26.9855 41.6452 25.6368 42.7241 25.0973 44.0729C24.8275 45.6913 25.0973 47.3098 26.1763 48.3888Z" fill="#15BE77"/>
</mask>
<g mask="url(#mask0_839_1800)">
<rect x="25" y="26" width="50" height="49" fill="url(#paint1_linear_839_1800)"/>
</g>
<defs>
<linearGradient id="paint0_linear_839_1800" x1="-1.41805e-07" y1="-6.14035" x2="115.441" y2="11.7455" gradientUnits="userSpaceOnUse">
<stop stop-color="#FFE350"/>
<stop offset="1" stop-color="#15BE77"/>
</linearGradient>
<linearGradient id="paint1_linear_839_1800" x1="25" y1="22.9912" x2="82.6645" y2="32.1078" gradientUnits="userSpaceOnUse">
<stop stop-color="#FFE350"/>
<stop offset="1" stop-color="#15BE77"/>
</linearGradient>
</defs>
</svg>
